<svg width="64" height="64" viewBox="0 0 64 64" fill="none" xmlns="http://www.w3.org/2000/svg">
<g id="Frame 1200">
<g id="Frame 1212">
<g id="icon-6" clip-path="url(#clip0_378_16)">
<circle id="Ellipse 3" cx="32" cy="32" r="31.5" fill="white" fill-opacity="0.1" stroke="#E5E5E5"/>
<g id="Crypto Currency Exchange Transfer" clip-path="url(#clip1_378_16)">
<g id="Group">
<path id="Vector" d="M38.6673 15.333L35.334 18.6663L38.6673 21.9997" stroke="#004455" stroke-width="1.25" stroke-linecap="round" stroke-linejoin="round"/>
<path id="Vector_2" d="M45.334 18.667H35.334" stroke="#004455" stroke-width="1.25" stroke-linecap="round" stroke-linejoin="round"/>
<path id="Vector_3" d="M46.9995 31.9997C46.9981 29.6851 46.458 27.4027 45.4219 25.333" stroke="#004455" stroke-width="1.25" stroke-linecap="round" stroke-linejoin="round"/>
<path id="Vector_4" d="M28.6667 17.3848C25.354 18.1391 22.3957 19.996 20.2761 22.6513C18.1566 25.3065 17.0015 28.6028 17 32.0002" stroke="#004455" stroke-width="1.25" stroke-linecap="round" stroke-linejoin="round"/>
<path id="Vector_5" d="M25.334 48.6667L28.6673 45.3333L25.334 42" stroke="#004455" stroke-width="1.25" stroke-linecap="round" stroke-linejoin="round"/>
<path id="Vector_6" d="M18.666 45.333H28.666" stroke="#004455" stroke-width="1.25" stroke-linecap="round" stroke-linejoin="round"/>
<path id="Vector_7" d="M17 32C17.0014 34.3145 17.5416 36.597 18.5776 38.6667" stroke="#004455" stroke-width="1.25" stroke-linecap="round" stroke-linejoin="round"/>
<path id="Vector_8" d="M35.334 46.6155C38.6466 45.8611 41.605 44.0043 43.7245 41.349C45.844 38.6937 46.9991 35.3975 47.0007 32" stroke="#004455" stroke-width="1.25" stroke-linecap="round" stroke-linejoin="round"/>
<path id="Vector_9" d="M33.7676 26.065L37.9348 30.2311C38.167 30.4632 38.3512 30.7387 38.4769 31.0421C38.6026 31.3454 38.6673 31.6704 38.6673 31.9988C38.6674 32.3271 38.6028 32.6522 38.4772 32.9555C38.3516 33.2588 38.1675 33.5345 37.9353 33.7667L33.7693 37.9339C33.5372 38.166 33.2616 38.3502 32.9583 38.4759C32.655 38.6016 32.3299 38.6663 32.0016 38.6664C31.6733 38.6664 31.3482 38.6018 31.0448 38.4762C30.7415 38.3506 30.4659 38.1665 30.2337 37.9344L26.0665 33.7683C25.8343 33.5362 25.6501 33.2606 25.5244 32.9573C25.3987 32.654 25.334 32.3289 25.334 32.0006C25.3339 31.6723 25.3986 31.3472 25.5242 31.0439C25.6498 30.7405 25.8339 30.4649 26.066 30.2327L30.232 26.0655C30.4641 25.8333 30.7397 25.6491 31.043 25.5235C31.3463 25.3978 31.6714 25.3331 31.9997 25.333C32.328 25.333 32.6531 25.3976 32.9565 25.5232C33.2598 25.6488 33.5355 25.8329 33.7676 26.065Z" fill="url(#paint0_linear_378_16)" stroke="#004455" stroke-width="1.25" stroke-linecap="round" stroke-linejoin="round"/>
</g>
</g>
</g>
</g>
</g>
<defs>
<linearGradient id="paint0_linear_378_16" x1="32.0007" y1="25.333" x2="32.0007" y2="38.6664" gradientUnits="userSpaceOnUse">
<stop stop-color="#004455" stop-opacity="0"/>
<stop offset="1" stop-color="#004455" stop-opacity="0.2"/>
</linearGradient>
<clipPath id="clip0_378_16">
<rect width="64" height="64" fill="white"/>
</clipPath>
<clipPath id="clip1_378_16">
<rect width="40" height="40" fill="white" transform="translate(12 12)"/>
</clipPath>
</defs>
</svg>
