<svg width="64" height="64" viewBox="0 0 64 64" fill="none" xmlns="http://www.w3.org/2000/svg">
<g id="Frame 1208">
<g id="Frame 1206">
<g id="Sign Checkmark" clip-path="url(#clip0_378_16)">
<g id="Group">
<circle id="Ellipse 2" cx="32" cy="32" r="31.5" fill="url(#paint0_linear_378_16)" stroke="#B5CBD1" stroke-linecap="round" stroke-linejoin="round"/>
<g id="Pin Location Map" clip-path="url(#clip1_378_16)">
<g id="Group_2">
<path id="Vector" d="M23.9997 32C23.3833 32.0001 22.7859 32.2138 22.3092 32.6047C21.8325 32.9956 21.5059 33.5395 21.3851 34.144L20.0518 40.8104C19.9744 41.1972 19.9838 41.5965 20.0794 41.9793C20.175 42.362 20.3543 42.7189 20.6044 43.024C20.8546 43.3291 21.1693 43.5749 21.5259 43.7437C21.8825 43.9125 22.2721 44 22.6667 44H41.3315C41.7261 44 42.1157 43.9125 42.4723 43.7437C42.8289 43.5749 43.1436 43.3291 43.3938 43.024C43.6439 42.7189 43.8232 42.362 43.9188 41.9793C44.0143 41.5965 44.0238 41.1972 43.9464 40.8104L42.6131 34.144C42.4922 33.5395 42.1656 32.9956 41.689 32.6047C41.2123 32.2138 40.6149 32.0001 39.9985 32" stroke="white" stroke-width="1.5" stroke-linecap="round" stroke-linejoin="round"/>
<path id="Vector_2" d="M27.334 38.667H36.6673" stroke="white" stroke-width="1.5" stroke-linecap="round" stroke-linejoin="round"/>
<path id="Vector_3" d="M26 26C26 24.4087 26.6321 22.8826 27.7574 21.7574C28.8826 20.6321 30.4087 20 32 20C33.5913 20 35.1174 20.6321 36.2426 21.7574C37.3679 22.8826 38 24.4087 38 26C38 28.6489 35.0131 31.4761 33.2529 32.9119C32.892 33.1854 32.4515 33.3334 31.9987 33.3333C31.5459 33.3332 31.1055 33.185 30.7447 32.9113C28.986 31.4753 26 28.6485 26 26Z" stroke="white" stroke-width="1.5" stroke-linecap="round" stroke-linejoin="round"/>
<path id="Vector_4" d="M31.8132 25.7238C31.8679 25.687 31.9322 25.6673 31.9981 25.667C32.042 25.6666 32.0856 25.6749 32.1263 25.6915C32.167 25.7081 32.204 25.7327 32.2351 25.7637C32.2663 25.7947 32.2909 25.8316 32.3077 25.8722C32.3244 25.9128 32.3329 25.9564 32.3327 26.0003C32.3327 26.0662 32.3132 26.1306 32.2766 26.1854C32.24 26.2402 32.188 26.2829 32.1272 26.3082C32.0664 26.3334 31.9994 26.3401 31.9348 26.3274C31.8702 26.3146 31.8108 26.283 31.7641 26.2365C31.7174 26.19 31.6856 26.1307 31.6726 26.0661C31.6596 26.0016 31.666 25.9346 31.691 25.8737C31.7161 25.8127 31.7586 25.7606 31.8132 25.7238Z" stroke="white" stroke-width="1.5" stroke-linecap="round" stroke-linejoin="round"/>
</g>
</g>
</g>
</g>
</g>
</g>
<defs>
<linearGradient id="paint0_linear_378_16" x1="7.17577" y1="56.8243" x2="60.3084" y2="3.69166" gradientUnits="userSpaceOnUse">
<stop stop-color="#004555"/>
<stop offset="1" stop-color="#97B2B9"/>
</linearGradient>
<clipPath id="clip0_378_16">
<rect width="64" height="64" fill="white"/>
</clipPath>
<clipPath id="clip1_378_16">
<rect width="32" height="32" fill="white" transform="translate(16 16)"/>
</clipPath>
</defs>
</svg>
