<svg width="537" height="364" viewBox="0 0 537 364" fill="none" xmlns="http://www.w3.org/2000/svg">
<rect x="71.4893" width="394.022" height="237" rx="23.4799" fill="#2D6472"/>
<rect x="71.8431" y="0.353867" width="393.314" height="236.292" rx="23.126" stroke="white" stroke-opacity="0.1" stroke-width="0.707734"/>
<g clip-path="url(#clip0_421_2)">
<path d="M240.934 37.7957C240.924 37.7957 240.917 37.8034 240.917 37.813V84.4595C240.917 87.6214 239.671 90.6443 237.456 92.8681C235.241 95.0918 232.23 96.3427 229.08 96.3427H182.6C177.167 96.3427 172.806 100.755 172.806 106.176V291.65C172.806 297.105 177.201 301.483 182.6 301.483H229.08C232.23 301.483 235.241 302.734 237.456 304.958C239.671 307.181 240.917 310.204 240.917 313.366V360.03C240.917 365.485 245.312 369.863 250.711 369.863H467.079C499.369 369.863 525.533 343.595 525.533 311.177V86.6485C525.533 54.2305 499.369 27.9626 467.079 27.9626H250.746C245.318 27.9626 240.961 32.3659 240.951 37.7783C240.951 37.7878 240.944 37.7957 240.934 37.7957ZM457.44 164.723C457.45 164.723 457.457 164.731 457.457 164.74V291.65C457.457 297.105 453.062 301.483 447.663 301.483H252.753C249.604 301.483 246.593 300.232 244.378 298.008C242.163 295.785 240.917 292.762 240.917 289.6V233.103V164.723V108.226C240.917 105.064 242.163 102.041 244.378 99.8173C246.593 97.5935 249.604 96.3427 252.753 96.3427H309.027H447.628C453.062 96.3427 457.423 100.755 457.423 106.176V164.705C457.423 164.715 457.43 164.723 457.44 164.723Z" fill="#306A79"/>
<path d="M240.934 37.7957C240.924 37.7957 240.917 37.8034 240.917 37.813V84.4595C240.917 87.6214 239.671 90.6443 237.456 92.8681C235.241 95.0918 232.23 96.3427 229.08 96.3427H182.6C177.167 96.3427 172.806 100.755 172.806 106.176V291.65C172.806 297.105 177.201 301.483 182.6 301.483H229.08C232.23 301.483 235.241 302.734 237.456 304.958C239.671 307.181 240.917 310.204 240.917 313.366V360.03C240.917 365.485 245.312 369.863 250.711 369.863H467.079C499.369 369.863 525.533 343.595 525.533 311.177V86.6485C525.533 54.2305 499.369 27.9626 467.079 27.9626H250.746C245.318 27.9626 240.961 32.3659 240.951 37.7783C240.951 37.7878 240.944 37.7957 240.934 37.7957ZM457.44 164.723C457.45 164.723 457.457 164.731 457.457 164.74V291.65C457.457 297.105 453.062 301.483 447.663 301.483H252.753C249.604 301.483 246.593 300.232 244.378 298.008C242.163 295.785 240.917 292.762 240.917 289.6V233.103V164.723V108.226C240.917 105.064 242.163 102.041 244.378 99.8173C246.593 97.5935 249.604 96.3427 252.753 96.3427H309.027H447.628C453.062 96.3427 457.423 100.755 457.423 106.176V164.705C457.423 164.715 457.43 164.723 457.44 164.723Z" fill="url(#paint0_radial_421_2)"/>
<path d="M250.746 28.3161H467.079C499.172 28.3161 525.179 54.4244 525.179 86.6481V311.177C525.179 343.401 499.172 369.509 467.079 369.509H250.711C245.508 369.509 241.271 365.29 241.271 360.03V313.366C241.271 310.111 239.988 306.998 237.707 304.708C235.425 302.417 232.324 301.13 229.081 301.13H182.6C177.397 301.129 173.16 296.91 173.16 291.65V106.175C173.16 100.949 177.364 96.6971 182.6 96.6969H229.081C232.324 96.6969 235.425 95.4083 237.707 93.1178C239.988 90.8274 241.271 87.7145 241.271 84.4596V37.9303C241.292 37.8838 241.305 37.8328 241.305 37.779C241.314 32.5596 245.515 28.3161 250.746 28.3161ZM252.752 95.9889C249.509 95.989 246.408 97.2767 244.126 99.567C241.845 101.858 240.563 104.971 240.563 108.226V289.6C240.563 292.855 241.845 295.968 244.126 298.258C246.408 300.549 249.509 301.836 252.752 301.837H447.663C453.257 301.837 457.811 297.3 457.811 291.65V164.74C457.811 164.685 457.798 164.633 457.777 164.586V106.175C457.777 100.562 453.259 95.989 447.628 95.9889H252.752Z" stroke="white" stroke-opacity="0.1" stroke-width="0.707734"/>
</g>
<path d="M101.922 48.2184V28.4019H107.754C110.075 28.4019 111.981 28.8077 113.472 29.6192C114.982 30.4118 116.096 31.5537 116.813 33.0446C117.549 34.5167 117.917 36.2908 117.917 38.3668C117.917 40.4051 117.549 42.1602 116.813 43.6323C116.096 45.1044 114.982 46.2368 113.472 47.0294C111.981 47.8221 110.075 48.2184 107.754 48.2184H101.922ZM104.3 46.2368H107.697C109.622 46.2368 111.151 45.9254 112.283 45.3026C113.416 44.6609 114.227 43.755 114.718 42.5849C115.209 41.3959 115.454 39.9899 115.454 38.3668C115.454 36.706 115.209 35.2811 114.718 34.0921C114.227 32.9031 113.416 31.9877 112.283 31.3461C111.151 30.7044 109.622 30.3835 107.697 30.3835H104.3V46.2368ZM121.497 48.2184V33.9505H123.875V48.2184H121.497ZM122.686 30.9214C122.214 30.9214 121.818 30.7704 121.497 30.4685C121.195 30.1476 121.044 29.7513 121.044 29.2795C121.044 28.8077 121.195 28.4302 121.497 28.1471C121.818 27.8451 122.214 27.6941 122.686 27.6941C123.139 27.6941 123.526 27.8451 123.847 28.1471C124.168 28.4302 124.328 28.8077 124.328 29.2795C124.328 29.7513 124.168 30.1476 123.847 30.4685C123.526 30.7704 123.139 30.9214 122.686 30.9214ZM128.072 48.2184V33.9505H130.223L130.336 36.4417C130.789 35.5547 131.431 34.8659 132.261 34.3752C133.111 33.8656 134.073 33.6108 135.149 33.6108C136.263 33.6108 137.225 33.8373 138.037 34.2902C138.848 34.7243 139.48 35.3943 139.933 36.3002C140.386 37.1872 140.613 38.3196 140.613 39.6973V48.2184H138.235V39.9521C138.235 38.5178 137.914 37.442 137.272 36.7248C136.649 36.0077 135.762 35.6491 134.611 35.6491C133.819 35.6491 133.111 35.8472 132.488 36.2436C131.865 36.621 131.365 37.1778 130.988 37.9138C130.629 38.631 130.45 39.5275 130.45 40.6032V48.2184H128.072ZM148.97 48.5582C147.819 48.5582 146.856 48.36 146.083 47.9637C145.309 47.5485 144.733 47.0106 144.356 46.35C143.978 45.6706 143.79 44.9346 143.79 44.1419C143.79 43.1794 144.035 42.3678 144.526 41.7073C145.035 41.0279 145.743 40.5183 146.649 40.1786C147.574 39.82 148.659 39.6407 149.904 39.6407H153.67C153.67 38.7537 153.528 38.0176 153.245 37.4326C152.981 36.8286 152.584 36.3757 152.056 36.0737C151.546 35.7718 150.905 35.6208 150.131 35.6208C149.225 35.6208 148.442 35.8472 147.781 36.3002C147.121 36.7531 146.715 37.4231 146.564 38.3102H144.129C144.243 37.291 144.582 36.4417 145.148 35.7623C145.734 35.064 146.47 34.5356 147.357 34.177C148.244 33.7995 149.168 33.6108 150.131 33.6108C151.452 33.6108 152.547 33.8562 153.415 34.3469C154.302 34.8187 154.962 35.4887 155.396 36.3568C155.831 37.2061 156.048 38.2158 156.048 39.3859V48.2184H153.924L153.783 45.6989C153.594 46.0952 153.349 46.4727 153.047 46.8313C152.764 47.171 152.424 47.473 152.028 47.7372C151.631 47.9825 151.178 48.1807 150.669 48.3317C150.178 48.4827 149.612 48.5582 148.97 48.5582ZM149.338 46.5482C149.999 46.5482 150.593 46.4161 151.122 46.1519C151.669 45.8688 152.131 45.4913 152.509 45.0195C152.886 44.5288 153.169 43.9909 153.358 43.4059C153.566 42.8208 153.67 42.2074 153.67 41.5657V41.4808H150.103C149.178 41.4808 148.432 41.5941 147.866 41.8205C147.3 42.0281 146.894 42.3301 146.649 42.7264C146.403 43.1039 146.281 43.538 146.281 44.0287C146.281 44.5382 146.394 44.9817 146.621 45.3592C146.866 45.7367 147.215 46.0292 147.668 46.2368C148.14 46.4444 148.697 46.5482 149.338 46.5482ZM159.726 48.2184V33.9505H161.878L162.048 36.6682C162.368 36.0265 162.774 35.4792 163.265 35.0263C163.774 34.5733 164.378 34.2242 165.077 33.9788C165.794 33.7335 166.605 33.6108 167.511 33.6108V36.102H166.634C166.03 36.102 165.454 36.187 164.907 36.3568C164.36 36.5078 163.869 36.7626 163.435 37.1212C163.02 37.4798 162.689 37.9705 162.444 38.5933C162.217 39.1972 162.104 39.9521 162.104 40.858V48.2184H159.726ZM176.048 48.5582C174.727 48.5582 173.538 48.2562 172.481 47.6523C171.424 47.0295 170.594 46.1613 169.99 45.0478C169.386 43.9154 169.084 42.6038 169.084 41.1128C169.084 39.5841 169.386 38.263 169.99 37.1495C170.613 36.0171 171.453 35.149 172.51 34.545C173.585 33.9222 174.784 33.6108 176.105 33.6108C177.464 33.6108 178.662 33.9222 179.7 34.545C180.757 35.149 181.588 36.0171 182.191 37.1495C182.814 38.263 183.126 39.5746 183.126 41.0845C183.126 42.5943 182.814 43.9154 182.191 45.0478C181.569 46.1613 180.729 47.0295 179.672 47.6523C178.615 48.2562 177.407 48.5582 176.048 48.5582ZM176.077 46.5199C176.888 46.5199 177.643 46.3217 178.341 45.9254C179.04 45.5102 179.606 44.8968 180.04 44.0853C180.474 43.2737 180.691 42.2735 180.691 41.0845C180.691 39.8766 180.474 38.8764 180.04 38.0837C179.625 37.2722 179.068 36.6682 178.37 36.2719C177.69 35.8567 176.935 35.6491 176.105 35.6491C175.312 35.6491 174.557 35.8567 173.84 36.2719C173.142 36.6682 172.576 37.2722 172.142 38.0837C171.726 38.8764 171.519 39.8766 171.519 41.0845C171.519 42.2735 171.726 43.2737 172.142 44.0853C172.576 44.8968 173.132 45.5102 173.812 45.9254C174.51 46.3217 175.265 46.5199 176.077 46.5199Z" fill="white"/>
<path d="M106.695 194.381H104.623V184.398L101.424 185.567V183.761L106.566 181.861H106.695V194.381ZM119.687 194.381H111.278V192.962L115.354 188.516C115.698 188.132 115.984 187.794 116.214 187.502C116.449 187.204 116.635 186.931 116.772 186.685C116.91 186.438 117.007 186.209 117.065 185.997C117.122 185.785 117.151 185.57 117.151 185.352C117.151 185.065 117.105 184.802 117.013 184.561C116.927 184.315 116.801 184.105 116.635 183.933C116.474 183.756 116.277 183.618 116.042 183.521C115.812 183.423 115.554 183.374 115.268 183.374C114.522 183.374 113.972 183.578 113.617 183.985C113.267 184.392 113.092 184.954 113.092 185.67H111.029C111.029 185.126 111.126 184.613 111.321 184.131C111.522 183.644 111.805 183.22 112.172 182.858C112.545 182.497 112.995 182.214 113.522 182.007C114.05 181.795 114.643 181.689 115.302 181.689C115.921 181.689 116.471 181.778 116.953 181.956C117.435 182.133 117.842 182.383 118.174 182.704C118.506 183.019 118.759 183.394 118.931 183.83C119.103 184.266 119.189 184.744 119.189 185.266C119.189 185.656 119.126 186.034 118.999 186.401C118.873 186.762 118.699 187.123 118.475 187.485C118.251 187.846 117.985 188.21 117.675 188.577C117.366 188.938 117.03 189.31 116.669 189.694L113.832 192.738H119.687V194.381ZM124.425 187.192H125.655C126.016 187.192 126.331 187.146 126.601 187.055C126.87 186.957 127.094 186.822 127.271 186.65C127.449 186.478 127.581 186.275 127.667 186.04C127.759 185.799 127.804 185.536 127.804 185.249C127.804 184.641 127.644 184.174 127.323 183.847C127.008 183.515 126.529 183.349 125.887 183.349C125.606 183.349 125.345 183.392 125.104 183.478C124.869 183.558 124.663 183.675 124.485 183.83C124.313 183.985 124.179 184.171 124.081 184.389C123.984 184.607 123.935 184.853 123.935 185.129H121.88C121.88 184.636 121.977 184.18 122.172 183.761C122.373 183.343 122.648 182.982 122.998 182.678C123.353 182.368 123.775 182.128 124.262 181.956C124.749 181.778 125.282 181.689 125.861 181.689C126.452 181.689 126.993 181.766 127.486 181.921C127.979 182.07 128.401 182.294 128.75 182.592C129.1 182.89 129.372 183.263 129.567 183.71C129.762 184.151 129.859 184.664 129.859 185.249C129.859 185.495 129.822 185.748 129.748 186.006C129.673 186.264 129.559 186.513 129.404 186.754C129.255 186.994 129.063 187.221 128.828 187.433C128.598 187.639 128.326 187.814 128.011 187.957C128.389 188.089 128.707 188.258 128.965 188.465C129.223 188.671 129.432 188.903 129.593 189.161C129.753 189.413 129.868 189.686 129.937 189.978C130.006 190.27 130.04 190.569 130.04 190.872C130.04 191.457 129.934 191.979 129.722 192.437C129.51 192.896 129.215 193.283 128.836 193.598C128.464 193.908 128.022 194.146 127.512 194.312C127.002 194.472 126.452 194.553 125.861 194.553C125.317 194.553 124.798 194.478 124.305 194.329C123.812 194.18 123.376 193.959 122.998 193.667C122.625 193.369 122.327 193.002 122.104 192.566C121.88 192.125 121.768 191.615 121.768 191.036H123.823C123.823 191.311 123.872 191.566 123.969 191.801C124.067 192.03 124.204 192.228 124.382 192.394C124.566 192.555 124.783 192.681 125.036 192.773C125.288 192.864 125.572 192.91 125.887 192.91C126.54 192.91 127.053 192.738 127.426 192.394C127.804 192.045 127.994 191.54 127.994 190.881C127.994 190.52 127.939 190.21 127.83 189.952C127.721 189.689 127.564 189.474 127.357 189.307C127.157 189.135 126.913 189.009 126.626 188.929C126.34 188.849 126.016 188.809 125.655 188.809H124.425V187.192ZM139.636 189.935H141.21V191.595H139.636V194.381H137.581V191.595H132.147L132.095 190.348L137.512 181.861H139.636V189.935ZM134.21 189.935H137.581V184.604L137.357 185.008L134.21 189.935ZM159.576 194.381H157.504V184.398L154.305 185.567V183.761L159.447 181.861H159.576V194.381ZM172.569 194.381H164.159V192.962L168.235 188.516C168.579 188.132 168.866 187.794 169.095 187.502C169.33 187.204 169.516 186.931 169.654 186.685C169.791 186.438 169.889 186.209 169.946 185.997C170.003 185.785 170.032 185.57 170.032 185.352C170.032 185.065 169.986 184.802 169.895 184.561C169.809 184.315 169.682 184.105 169.516 183.933C169.356 183.756 169.158 183.618 168.923 183.521C168.694 183.423 168.436 183.374 168.149 183.374C167.404 183.374 166.853 183.578 166.498 183.985C166.148 184.392 165.974 184.954 165.974 185.67H163.91C163.91 185.126 164.007 184.613 164.202 184.131C164.403 183.644 164.687 183.22 165.054 182.858C165.426 182.497 165.876 182.214 166.403 182.007C166.931 181.795 167.524 181.689 168.183 181.689C168.802 181.689 169.353 181.778 169.834 181.956C170.316 182.133 170.723 182.383 171.055 182.704C171.388 183.019 171.64 183.394 171.812 183.83C171.984 184.266 172.07 184.744 172.07 185.266C172.07 185.656 172.007 186.034 171.881 186.401C171.755 186.762 171.58 187.123 171.356 187.485C171.133 187.846 170.866 188.21 170.557 188.577C170.247 188.938 169.912 189.31 169.551 189.694L166.713 192.738H172.569V194.381ZM177.306 187.192H178.536C178.897 187.192 179.213 187.146 179.482 187.055C179.751 186.957 179.975 186.822 180.153 186.65C180.33 186.478 180.462 186.275 180.548 186.04C180.64 185.799 180.686 185.536 180.686 185.249C180.686 184.641 180.525 184.174 180.204 183.847C179.889 183.515 179.41 183.349 178.768 183.349C178.487 183.349 178.227 183.392 177.986 183.478C177.751 183.558 177.544 183.675 177.367 183.83C177.195 183.985 177.06 184.171 176.963 184.389C176.865 184.607 176.816 184.853 176.816 185.129H174.761C174.761 184.636 174.859 184.18 175.054 183.761C175.254 183.343 175.529 182.982 175.879 182.678C176.235 182.368 176.656 182.128 177.143 181.956C177.63 181.778 178.163 181.689 178.742 181.689C179.333 181.689 179.875 181.766 180.368 181.921C180.861 182.07 181.282 182.294 181.632 182.592C181.981 182.89 182.254 183.263 182.448 183.71C182.643 184.151 182.741 184.664 182.741 185.249C182.741 185.495 182.704 185.748 182.629 186.006C182.554 186.264 182.44 186.513 182.285 186.754C182.136 186.994 181.944 187.221 181.709 187.433C181.48 187.639 181.207 187.814 180.892 187.957C181.27 188.089 181.589 188.258 181.847 188.465C182.105 188.671 182.314 188.903 182.474 189.161C182.635 189.413 182.749 189.686 182.818 189.978C182.887 190.27 182.921 190.569 182.921 190.872C182.921 191.457 182.815 191.979 182.603 192.437C182.391 192.896 182.096 193.283 181.718 193.598C181.345 193.908 180.904 194.146 180.393 194.312C179.883 194.472 179.333 194.553 178.742 194.553C178.198 194.553 177.679 194.478 177.186 194.329C176.693 194.18 176.257 193.959 175.879 193.667C175.507 193.369 175.208 193.002 174.985 192.566C174.761 192.125 174.65 191.615 174.65 191.036H176.705C176.705 191.311 176.753 191.566 176.851 191.801C176.948 192.03 177.086 192.228 177.263 192.394C177.447 192.555 177.665 192.681 177.917 192.773C178.169 192.864 178.453 192.91 178.768 192.91C179.422 192.91 179.935 192.738 180.307 192.394C180.686 192.045 180.875 191.54 180.875 190.881C180.875 190.52 180.82 190.21 180.712 189.952C180.603 189.689 180.445 189.474 180.239 189.307C180.038 189.135 179.794 189.009 179.508 188.929C179.221 188.849 178.897 188.809 178.536 188.809H177.306V187.192ZM192.517 189.935H194.091V191.595H192.517V194.381H190.462V191.595H185.028L184.976 190.348L190.394 181.861H192.517V189.935ZM187.092 189.935H190.462V184.604L190.239 185.008L187.092 189.935ZM212.458 194.381H210.385V184.398L207.187 185.567V183.761L212.329 181.861H212.458V194.381ZM225.45 194.381H217.041V192.962L221.116 188.516C221.46 188.132 221.747 187.794 221.976 187.502C222.211 187.204 222.397 186.931 222.535 186.685C222.673 186.438 222.77 186.209 222.827 185.997C222.885 185.785 222.913 185.57 222.913 185.352C222.913 185.065 222.868 184.802 222.776 184.561C222.69 184.315 222.564 184.105 222.397 183.933C222.237 183.756 222.039 183.618 221.804 183.521C221.575 183.423 221.317 183.374 221.03 183.374C220.285 183.374 219.735 183.578 219.379 183.985C219.03 184.392 218.855 184.954 218.855 185.67H216.791C216.791 185.126 216.889 184.613 217.084 184.131C217.284 183.644 217.568 183.22 217.935 182.858C218.307 182.497 218.757 182.214 219.285 182.007C219.812 181.795 220.405 181.689 221.065 181.689C221.684 181.689 222.234 181.778 222.716 181.956C223.197 182.133 223.604 182.383 223.937 182.704C224.269 183.019 224.521 183.394 224.693 183.83C224.865 184.266 224.951 184.744 224.951 185.266C224.951 185.656 224.888 186.034 224.762 186.401C224.636 186.762 224.461 187.123 224.238 187.485C224.014 187.846 223.747 188.21 223.438 188.577C223.128 188.938 222.793 189.31 222.432 189.694L219.594 192.738H225.45V194.381ZM230.188 187.192H231.417C231.779 187.192 232.094 187.146 232.363 187.055C232.633 186.957 232.856 186.822 233.034 186.65C233.212 186.478 233.343 186.275 233.429 186.04C233.521 185.799 233.567 185.536 233.567 185.249C233.567 184.641 233.407 184.174 233.086 183.847C232.77 183.515 232.292 183.349 231.65 183.349C231.369 183.349 231.108 183.392 230.867 183.478C230.632 183.558 230.426 183.675 230.248 183.83C230.076 183.985 229.941 184.171 229.844 184.389C229.746 184.607 229.698 184.853 229.698 185.129H227.643C227.643 184.636 227.74 184.18 227.935 183.761C228.136 183.343 228.411 182.982 228.76 182.678C229.116 182.368 229.537 182.128 230.024 181.956C230.512 181.778 231.045 181.689 231.624 181.689C232.214 181.689 232.756 181.766 233.249 181.921C233.742 182.07 234.163 182.294 234.513 182.592C234.863 182.89 235.135 183.263 235.33 183.71C235.525 184.151 235.622 184.664 235.622 185.249C235.622 185.495 235.585 185.748 235.51 186.006C235.436 186.264 235.321 186.513 235.166 186.754C235.017 186.994 234.825 187.221 234.59 187.433C234.361 187.639 234.089 187.814 233.773 187.957C234.152 188.089 234.47 188.258 234.728 188.465C234.986 188.671 235.195 188.903 235.356 189.161C235.516 189.413 235.631 189.686 235.699 189.978C235.768 190.27 235.803 190.569 235.803 190.872C235.803 191.457 235.697 191.979 235.485 192.437C235.272 192.896 234.977 193.283 234.599 193.598C234.226 193.908 233.785 194.146 233.275 194.312C232.765 194.472 232.214 194.553 231.624 194.553C231.079 194.553 230.56 194.478 230.067 194.329C229.574 194.18 229.139 193.959 228.76 193.667C228.388 193.369 228.09 193.002 227.866 192.566C227.643 192.125 227.531 191.615 227.531 191.036H229.586C229.586 191.311 229.635 191.566 229.732 191.801C229.83 192.03 229.967 192.228 230.145 192.394C230.328 192.555 230.546 192.681 230.798 192.773C231.051 192.864 231.334 192.91 231.65 192.91C232.303 192.91 232.816 192.738 233.189 192.394C233.567 192.045 233.756 191.54 233.756 190.881C233.756 190.52 233.702 190.21 233.593 189.952C233.484 189.689 233.326 189.474 233.12 189.307C232.919 189.135 232.676 189.009 232.389 188.929C232.102 188.849 231.779 188.809 231.417 188.809H230.188V187.192ZM245.399 189.935H246.972V191.595H245.399V194.381H243.344V191.595H237.909L237.858 190.348L243.275 181.861H245.399V189.935ZM239.973 189.935H243.344V184.604L243.12 185.008L239.973 189.935ZM265.339 194.381H263.267V184.398L260.068 185.567V183.761L265.21 181.861H265.339V194.381ZM278.331 194.381H269.922V192.962L273.998 188.516C274.342 188.132 274.628 187.794 274.857 187.502C275.092 187.204 275.279 186.931 275.416 186.685C275.554 186.438 275.651 186.209 275.709 185.997C275.766 185.785 275.795 185.57 275.795 185.352C275.795 185.065 275.749 184.802 275.657 184.561C275.571 184.315 275.445 184.105 275.279 183.933C275.118 183.756 274.921 183.618 274.685 183.521C274.456 183.423 274.198 183.374 273.912 183.374C273.166 183.374 272.616 183.578 272.261 183.985C271.911 184.392 271.736 184.954 271.736 185.67H269.673C269.673 185.126 269.77 184.613 269.965 184.131C270.165 183.644 270.449 183.22 270.816 182.858C271.189 182.497 271.639 182.214 272.166 182.007C272.693 181.795 273.287 181.689 273.946 181.689C274.565 181.689 275.115 181.778 275.597 181.956C276.078 182.133 276.485 182.383 276.818 182.704C277.15 183.019 277.403 183.394 277.575 183.83C277.747 184.266 277.833 184.744 277.833 185.266C277.833 185.656 277.77 186.034 277.643 186.401C277.517 186.762 277.342 187.123 277.119 187.485C276.895 187.846 276.629 188.21 276.319 188.577C276.01 188.938 275.674 189.31 275.313 189.694L272.476 192.738H278.331V194.381ZM283.069 187.192H284.299C284.66 187.192 284.975 187.146 285.245 187.055C285.514 186.957 285.738 186.822 285.915 186.65C286.093 186.478 286.225 186.275 286.311 186.04C286.402 185.799 286.448 185.536 286.448 185.249C286.448 184.641 286.288 184.174 285.967 183.847C285.652 183.515 285.173 183.349 284.531 183.349C284.25 183.349 283.989 183.392 283.748 183.478C283.513 183.558 283.307 183.675 283.129 183.83C282.957 183.985 282.823 184.171 282.725 184.389C282.628 184.607 282.579 184.853 282.579 185.129H280.524C280.524 184.636 280.621 184.18 280.816 183.761C281.017 183.343 281.292 182.982 281.642 182.678C281.997 182.368 282.418 182.128 282.906 181.956C283.393 181.778 283.926 181.689 284.505 181.689C285.096 181.689 285.637 181.766 286.13 181.921C286.623 182.07 287.045 182.294 287.394 182.592C287.744 182.89 288.016 183.263 288.211 183.71C288.406 184.151 288.503 184.664 288.503 185.249C288.503 185.495 288.466 185.748 288.392 186.006C288.317 186.264 288.202 186.513 288.048 186.754C287.899 186.994 287.707 187.221 287.472 187.433C287.242 187.639 286.97 187.814 286.655 187.957C287.033 188.089 287.351 188.258 287.609 188.465C287.867 188.671 288.076 188.903 288.237 189.161C288.397 189.413 288.512 189.686 288.581 189.978C288.65 190.27 288.684 190.569 288.684 190.872C288.684 191.457 288.578 191.979 288.366 192.437C288.154 192.896 287.859 193.283 287.48 193.598C287.108 193.908 286.666 194.146 286.156 194.312C285.646 194.472 285.096 194.553 284.505 194.553C283.96 194.553 283.442 194.478 282.949 194.329C282.456 194.18 282.02 193.959 281.642 193.667C281.269 193.369 280.971 193.002 280.747 192.566C280.524 192.125 280.412 191.615 280.412 191.036H282.467C282.467 191.311 282.516 191.566 282.613 191.801C282.711 192.03 282.848 192.228 283.026 192.394C283.21 192.555 283.427 192.681 283.68 192.773C283.932 192.864 284.216 192.91 284.531 192.91C285.184 192.91 285.697 192.738 286.07 192.394C286.448 192.045 286.638 191.54 286.638 190.881C286.638 190.52 286.583 190.21 286.474 189.952C286.365 189.689 286.208 189.474 286.001 189.307C285.801 189.135 285.557 189.009 285.27 188.929C284.984 188.849 284.66 188.809 284.299 188.809H283.069V187.192ZM298.28 189.935H299.854V191.595H298.28V194.381H296.225V191.595H290.791L290.739 190.348L296.156 181.861H298.28V189.935ZM292.854 189.935H296.225V184.604L296.001 185.008L292.854 189.935Z" fill="white"/>
<rect x="31.5884" y="19" width="473.824" height="285" rx="28.2353" fill="#2D6472"/>
<rect x="31.5884" y="19" width="473.824" height="285" rx="28.2353" fill="url(#paint1_radial_421_2)" fill-opacity="0.4"/>
<rect x="32.0139" y="19.4255" width="472.972" height="284.149" rx="27.8098" stroke="white" stroke-opacity="0.1" stroke-width="0.851073"/>
<g clip-path="url(#clip1_421_2)">
<path d="M235.351 64.4505C235.339 64.4505 235.33 64.4598 235.33 64.4713V120.565C235.33 124.368 233.832 128.003 231.168 130.677C228.504 133.351 224.884 134.855 221.096 134.855H165.203C158.669 134.855 153.425 140.162 153.425 146.68V369.718C153.425 376.278 158.71 381.543 165.203 381.543H221.096C224.884 381.543 228.504 383.047 231.168 385.721C233.832 388.395 235.33 392.03 235.33 395.833V451.947C235.33 458.507 240.615 463.772 247.108 463.772H507.297C546.127 463.772 577.59 432.184 577.59 393.2V123.198C577.59 84.2139 546.127 52.6259 507.297 52.6259H247.149C240.622 52.6259 235.383 57.921 235.371 64.4296C235.371 64.4411 235.362 64.4505 235.351 64.4505ZM495.706 217.084C495.717 217.084 495.727 217.094 495.727 217.105V369.718C495.727 376.278 490.441 381.543 483.949 381.543H249.563C245.776 381.543 242.155 380.039 239.492 377.365C236.828 374.69 235.33 371.055 235.33 367.253V299.314V217.084V149.145C235.33 145.343 236.828 141.708 239.492 139.033C242.155 136.359 245.776 134.855 249.563 134.855H317.235H483.907C490.441 134.855 495.685 140.162 495.685 146.68V217.064C495.685 217.075 495.694 217.084 495.706 217.084Z" fill="#306A79"/>
<path d="M235.351 64.4505C235.339 64.4505 235.33 64.4598 235.33 64.4713V120.565C235.33 124.368 233.832 128.003 231.168 130.677C228.504 133.351 224.884 134.855 221.096 134.855H165.203C158.669 134.855 153.425 140.162 153.425 146.68V369.718C153.425 376.278 158.71 381.543 165.203 381.543H221.096C224.884 381.543 228.504 383.047 231.168 385.721C233.832 388.395 235.33 392.03 235.33 395.833V451.947C235.33 458.507 240.615 463.772 247.108 463.772H507.297C546.127 463.772 577.59 432.184 577.59 393.2V123.198C577.59 84.2139 546.127 52.6259 507.297 52.6259H247.149C240.622 52.6259 235.383 57.921 235.371 64.4296C235.371 64.4411 235.362 64.4505 235.351 64.4505ZM495.706 217.084C495.717 217.084 495.727 217.094 495.727 217.105V369.718C495.727 376.278 490.441 381.543 483.949 381.543H249.563C245.776 381.543 242.155 380.039 239.492 377.365C236.828 374.69 235.33 371.055 235.33 367.253V299.314V217.084V149.145C235.33 145.343 236.828 141.708 239.492 139.033C242.155 136.359 245.776 134.855 249.563 134.855H317.235H483.907C490.441 134.855 495.685 140.162 495.685 146.68V217.064C495.685 217.075 495.694 217.084 495.706 217.084Z" fill="url(#paint2_radial_421_2)"/>
<path d="M247.149 53.0516H507.297C545.89 53.0517 577.165 84.4472 577.165 123.197V393.2C577.165 431.95 545.89 463.346 507.297 463.347H247.107C240.851 463.346 235.755 458.273 235.755 451.947V395.833C235.755 391.919 234.213 388.175 231.47 385.421C228.726 382.666 224.997 381.117 221.097 381.117H165.203C158.946 381.117 153.851 376.044 153.851 369.719V146.68C153.851 140.394 158.907 135.28 165.203 135.28H221.097C224.997 135.28 228.726 133.732 231.47 130.977C234.213 128.223 235.755 124.479 235.755 120.565V64.6161C235.781 64.5592 235.797 64.4966 235.797 64.4305C235.808 58.1541 240.86 53.0517 247.149 53.0516ZM249.563 134.43C245.663 134.43 241.934 135.979 239.19 138.733C236.447 141.488 234.904 145.231 234.904 149.145V367.253C234.904 371.167 236.447 374.911 239.19 377.665C241.934 380.419 245.663 381.969 249.563 381.969H483.949C490.677 381.968 496.152 376.513 496.152 369.719V217.105C496.152 217.039 496.137 216.976 496.11 216.919V146.68C496.11 139.929 490.679 134.43 483.907 134.43H249.563Z" stroke="white" stroke-opacity="0.1" stroke-width="0.851073"/>
</g>
<path d="M68.1846 76.9336V53.1035H75.1974C77.9889 53.1035 80.2811 53.5915 82.0741 54.5674C83.8897 55.5206 85.2287 56.8936 86.0911 58.6866C86.9763 60.4568 87.4188 62.5901 87.4188 65.0866C87.4188 67.5377 86.9763 69.6484 86.0911 71.4186C85.2287 73.1888 83.8897 74.5506 82.0741 75.5038C80.2811 76.457 77.9889 76.9336 75.1974 76.9336H68.1846ZM71.0442 74.5506H75.1293C77.4442 74.5506 79.2826 74.1761 80.6443 73.4271C82.006 72.6555 82.9819 71.5661 83.572 70.159C84.162 68.7292 84.4571 67.0384 84.4571 65.0866C84.4571 63.0894 84.162 61.3759 83.572 59.9461C82.9819 58.5163 82.006 57.4156 80.6443 56.644C79.2826 55.8723 77.4442 55.4865 75.1293 55.4865H71.0442V74.5506ZM91.7244 76.9336V59.7759H94.584V76.9336H91.7244ZM93.1542 56.1333C92.5869 56.1333 92.1103 55.9518 91.7244 55.5887C91.3613 55.2028 91.1798 54.7262 91.1798 54.1589C91.1798 53.5915 91.3613 53.1376 91.7244 52.7971C92.1103 52.434 92.5869 52.2524 93.1542 52.2524C93.6989 52.2524 94.1642 52.434 94.55 52.7971C94.9358 53.1376 95.1287 53.5915 95.1287 54.1589C95.1287 54.7262 94.9358 55.2028 94.55 55.5887C94.1642 55.9518 93.6989 56.1333 93.1542 56.1333ZM99.6304 76.9336V59.7759H102.218L102.354 62.7717C102.898 61.705 103.67 60.8767 104.669 60.2866C105.69 59.6738 106.847 59.3674 108.141 59.3674C109.48 59.3674 110.638 59.6398 111.613 60.1844C112.589 60.7064 113.35 61.5121 113.894 62.6015C114.439 63.6682 114.711 65.0299 114.711 66.6866V76.9336H111.852V66.993C111.852 65.2682 111.466 63.9746 110.694 63.1121C109.945 62.2497 108.879 61.8185 107.494 61.8185C106.541 61.8185 105.69 62.0568 104.941 62.5334C104.192 62.9873 103.591 63.6568 103.137 64.5419C102.706 65.4044 102.49 66.4824 102.49 67.776V76.9336H99.6304ZM124.761 77.3421C123.377 77.3421 122.22 77.1038 121.289 76.6272C120.359 76.1279 119.666 75.4811 119.212 74.6867C118.759 73.8697 118.532 72.9846 118.532 72.0314C118.532 70.8739 118.827 69.898 119.417 69.1037C120.03 68.2867 120.881 67.6739 121.97 67.2654C123.082 66.8342 124.387 66.6186 125.885 66.6186H130.413C130.413 65.5519 130.242 64.6668 129.902 63.9632C129.584 63.237 129.108 62.6923 128.472 62.3292C127.859 61.966 127.088 61.7845 126.157 61.7845C125.068 61.7845 124.126 62.0568 123.332 62.6015C122.537 63.1462 122.049 63.9519 121.868 65.0185H118.94C119.076 63.793 119.485 62.7717 120.166 61.9547C120.869 61.115 121.754 60.4795 122.821 60.0483C123.888 59.5944 125 59.3674 126.157 59.3674C127.746 59.3674 129.062 59.6625 130.106 60.2525C131.173 60.8199 131.967 61.6256 132.489 62.6696C133.011 63.6909 133.272 64.9051 133.272 66.3122V76.9336H130.719L130.549 73.9037C130.322 74.3803 130.027 74.8342 129.664 75.2655C129.323 75.674 128.915 76.0371 128.438 76.3548C127.962 76.6499 127.417 76.8882 126.804 77.0697C126.214 77.2513 125.533 77.3421 124.761 77.3421ZM125.204 74.925C125.998 74.925 126.713 74.7662 127.349 74.4484C128.007 74.108 128.563 73.6541 129.017 73.0867C129.471 72.4966 129.811 71.8498 130.038 71.1463C130.288 70.4427 130.413 69.7051 130.413 68.9335V68.8313H126.123C125.011 68.8313 124.115 68.9675 123.434 69.2399C122.753 69.4895 122.265 69.8526 121.97 70.3292C121.675 70.7831 121.527 71.3051 121.527 71.8952C121.527 72.508 121.664 73.0413 121.936 73.4952C122.231 73.9491 122.651 74.3009 123.196 74.5506C123.763 74.8002 124.432 74.925 125.204 74.925ZM137.696 76.9336V59.7759H140.283L140.487 63.0441C140.873 62.2724 141.361 61.6142 141.951 61.0696C142.564 60.5249 143.29 60.105 144.13 59.81C144.992 59.5149 145.968 59.3674 147.058 59.3674V62.3632H146.002C145.276 62.3632 144.584 62.4653 143.926 62.6696C143.268 62.8511 142.678 63.1575 142.156 63.5887C141.656 64.0199 141.259 64.61 140.964 65.359C140.692 66.0852 140.556 66.993 140.556 68.0824V76.9336H137.696ZM157.324 77.3421C155.735 77.3421 154.305 76.979 153.034 76.2527C151.763 75.5038 150.765 74.4598 150.039 73.1208C149.312 71.759 148.949 70.1817 148.949 68.3888C148.949 66.5505 149.312 64.9618 150.039 63.6228C150.788 62.2611 151.798 61.2171 153.068 60.4908C154.362 59.7419 155.803 59.3674 157.392 59.3674C159.026 59.3674 160.467 59.7419 161.715 60.4908C162.986 61.2171 163.985 62.2611 164.711 63.6228C165.46 64.9618 165.835 66.5391 165.835 68.3547C165.835 70.1704 165.46 71.759 164.711 73.1208C163.962 74.4598 162.952 75.5038 161.681 76.2527C160.41 76.979 158.958 77.3421 157.324 77.3421ZM157.358 74.891C158.334 74.891 159.242 74.6527 160.081 74.1761C160.921 73.6768 161.602 72.9392 162.124 71.9633C162.646 70.9874 162.907 69.7845 162.907 68.3547C162.907 66.9022 162.646 65.6994 162.124 64.7462C161.625 63.7703 160.955 63.0441 160.115 62.5675C159.298 62.0682 158.39 61.8185 157.392 61.8185C156.439 61.8185 155.531 62.0682 154.668 62.5675C153.829 63.0441 153.148 63.7703 152.626 64.7462C152.127 65.6994 151.877 66.9022 151.877 68.3547C151.877 69.7845 152.127 70.9874 152.626 71.9633C153.148 72.9392 153.817 73.6768 154.634 74.1761C155.474 74.6527 156.382 74.891 157.358 74.891Z" fill="white"/>
<path d="M73.9241 252.116H71.4321V240.111L67.5856 241.517V239.346L73.769 237.061H73.9241V252.116ZM89.5479 252.116H79.4353V250.41L84.3365 245.064C84.7501 244.602 85.0948 244.195 85.3705 243.844C85.6532 243.485 85.8772 243.158 86.0427 242.862C86.2081 242.565 86.3253 242.289 86.3942 242.034C86.4631 241.779 86.4976 241.521 86.4976 241.259C86.4976 240.914 86.4425 240.597 86.3322 240.308C86.2288 240.011 86.0771 239.76 85.8772 239.553C85.6842 239.339 85.4464 239.174 85.1637 239.056C84.888 238.939 84.5778 238.881 84.2331 238.881C83.337 238.881 82.6752 239.125 82.2478 239.615C81.8273 240.104 81.6171 240.78 81.6171 241.641H79.1355C79.1355 240.987 79.2527 240.37 79.487 239.791C79.7283 239.205 80.0695 238.694 80.5107 238.26C80.9588 237.826 81.4999 237.485 82.1341 237.237C82.7683 236.981 83.4818 236.854 84.2745 236.854C85.019 236.854 85.6807 236.961 86.2598 237.175C86.8388 237.388 87.3283 237.688 87.7281 238.074C88.1279 238.453 88.4312 238.905 88.638 239.429C88.8448 239.953 88.9482 240.528 88.9482 241.155C88.9482 241.624 88.8724 242.079 88.7207 242.52C88.5691 242.955 88.3588 243.389 88.09 243.823C87.8211 244.257 87.5006 244.695 87.1284 245.136C86.7561 245.571 86.3529 246.019 85.9186 246.481L82.5063 250.141H89.5479V252.116ZM95.2453 243.472H96.7239C97.1582 243.472 97.5374 243.416 97.8614 243.306C98.1853 243.189 98.4542 243.027 98.6679 242.82C98.8816 242.613 99.0401 242.369 99.1435 242.086C99.2538 241.797 99.309 241.479 99.309 241.135C99.309 240.404 99.1159 239.842 98.7299 239.449C98.3508 239.049 97.7752 238.85 97.0031 238.85C96.6654 238.85 96.3517 238.901 96.0622 239.005C95.7796 239.101 95.5314 239.243 95.3177 239.429C95.1109 239.615 94.9489 239.839 94.8317 240.101C94.7145 240.363 94.6559 240.659 94.6559 240.99H92.1847C92.1847 240.397 92.3018 239.849 92.5362 239.346C92.7775 238.843 93.1084 238.408 93.5289 238.043C93.9563 237.671 94.4629 237.381 95.0489 237.175C95.6348 236.961 96.2759 236.854 96.9721 236.854C97.6821 236.854 98.3336 236.947 98.9264 237.133C99.5192 237.312 100.026 237.581 100.446 237.94C100.867 238.298 101.194 238.746 101.429 239.284C101.663 239.815 101.78 240.432 101.78 241.135C101.78 241.431 101.735 241.734 101.646 242.045C101.556 242.355 101.418 242.655 101.232 242.944C101.053 243.234 100.822 243.506 100.539 243.761C100.264 244.009 99.9363 244.22 99.5571 244.392C100.012 244.55 100.395 244.754 100.705 245.002C101.015 245.25 101.267 245.529 101.46 245.839C101.653 246.143 101.791 246.47 101.873 246.822C101.956 247.173 101.997 247.532 101.997 247.897C101.997 248.6 101.87 249.228 101.615 249.779C101.36 250.331 101.005 250.796 100.55 251.175C100.102 251.547 99.5709 251.833 98.9574 252.033C98.3439 252.226 97.6821 252.323 96.9721 252.323C96.3172 252.323 95.6934 252.233 95.1006 252.054C94.5077 251.875 93.9838 251.609 93.5289 251.258C93.0808 250.899 92.7223 250.458 92.4535 249.934C92.1847 249.403 92.0502 248.79 92.0502 248.094H94.5215C94.5215 248.424 94.5801 248.731 94.6973 249.014C94.8145 249.29 94.9799 249.527 95.1936 249.727C95.4142 249.92 95.6762 250.072 95.9795 250.182C96.2828 250.293 96.624 250.348 97.0031 250.348C97.789 250.348 98.4059 250.141 98.854 249.727C99.309 249.307 99.5364 248.7 99.5364 247.907C99.5364 247.473 99.471 247.101 99.34 246.791C99.209 246.474 99.0194 246.215 98.7713 246.015C98.53 245.808 98.237 245.657 97.8924 245.56C97.5477 245.464 97.1582 245.416 96.7239 245.416H95.2453V243.472ZM113.537 246.77H115.429V248.766H113.537V252.116H111.066V248.766H104.531L104.469 247.266L110.983 237.061H113.537V246.77ZM107.012 246.77H111.066V240.359L110.797 240.845L107.012 246.77ZM137.516 252.116H135.024V240.111L131.177 241.517V239.346L137.36 237.061H137.516V252.116ZM153.139 252.116H143.027V250.41L147.928 245.064C148.342 244.602 148.686 244.195 148.962 243.844C149.245 243.485 149.469 243.158 149.634 242.862C149.8 242.565 149.917 242.289 149.986 242.034C150.055 241.779 150.089 241.521 150.089 241.259C150.089 240.914 150.034 240.597 149.924 240.308C149.82 240.011 149.669 239.76 149.469 239.553C149.276 239.339 149.038 239.174 148.755 239.056C148.479 238.939 148.169 238.881 147.825 238.881C146.928 238.881 146.267 239.125 145.839 239.615C145.419 240.104 145.209 240.78 145.209 241.641H142.727C142.727 240.987 142.844 240.37 143.078 239.791C143.32 239.205 143.661 238.694 144.102 238.26C144.55 237.826 145.091 237.485 145.726 237.237C146.36 236.981 147.073 236.854 147.866 236.854C148.61 236.854 149.272 236.961 149.851 237.175C150.43 237.388 150.92 237.688 151.32 238.074C151.719 238.453 152.023 238.905 152.229 239.429C152.436 239.953 152.54 240.528 152.54 241.155C152.54 241.624 152.464 242.079 152.312 242.52C152.161 242.955 151.95 243.389 151.681 243.823C151.413 244.257 151.092 244.695 150.72 245.136C150.348 245.571 149.944 246.019 149.51 246.481L146.098 250.141H153.139V252.116ZM158.837 243.472H160.315C160.75 243.472 161.129 243.416 161.453 243.306C161.777 243.189 162.046 243.027 162.259 242.82C162.473 242.613 162.632 242.369 162.735 242.086C162.845 241.797 162.9 241.479 162.9 241.135C162.9 240.404 162.707 239.842 162.321 239.449C161.942 239.049 161.367 238.85 160.595 238.85C160.257 238.85 159.943 238.901 159.654 239.005C159.371 239.101 159.123 239.243 158.909 239.429C158.702 239.615 158.54 239.839 158.423 240.101C158.306 240.363 158.247 240.659 158.247 240.99H155.776C155.776 240.397 155.893 239.849 156.128 239.346C156.369 238.843 156.7 238.408 157.12 238.043C157.548 237.671 158.054 237.381 158.64 237.175C159.226 236.961 159.867 236.854 160.564 236.854C161.274 236.854 161.925 236.947 162.518 237.133C163.111 237.312 163.617 237.581 164.038 237.94C164.458 238.298 164.786 238.746 165.02 239.284C165.255 239.815 165.372 240.432 165.372 241.135C165.372 241.431 165.327 241.734 165.237 242.045C165.148 242.355 165.01 242.655 164.824 242.944C164.644 243.234 164.414 243.506 164.131 243.761C163.855 244.009 163.528 244.22 163.149 244.392C163.604 244.55 163.986 244.754 164.296 245.002C164.607 245.25 164.858 245.529 165.051 245.839C165.244 246.143 165.382 246.47 165.465 246.822C165.547 247.173 165.589 247.532 165.589 247.897C165.589 248.6 165.461 249.228 165.206 249.779C164.951 250.331 164.596 250.796 164.141 251.175C163.693 251.547 163.162 251.833 162.549 252.033C161.935 252.226 161.274 252.323 160.564 252.323C159.909 252.323 159.285 252.233 158.692 252.054C158.099 251.875 157.575 251.609 157.12 251.258C156.672 250.899 156.314 250.458 156.045 249.934C155.776 249.403 155.642 248.79 155.642 248.094H158.113C158.113 248.424 158.172 248.731 158.289 249.014C158.406 249.29 158.571 249.527 158.785 249.727C159.006 249.92 159.268 250.072 159.571 250.182C159.874 250.293 160.215 250.348 160.595 250.348C161.38 250.348 161.997 250.141 162.445 249.727C162.9 249.307 163.128 248.7 163.128 247.907C163.128 247.473 163.062 247.101 162.931 246.791C162.8 246.474 162.611 246.215 162.363 246.015C162.121 245.808 161.828 245.657 161.484 245.56C161.139 245.464 160.75 245.416 160.315 245.416H158.837V243.472ZM177.128 246.77H179.021V248.766H177.128V252.116H174.657V248.766H168.122L168.06 247.266L174.574 237.061H177.128V246.77ZM170.604 246.77H174.657V240.359L174.388 240.845L170.604 246.77ZM201.107 252.116H198.615V240.111L194.769 241.517V239.346L200.952 237.061H201.107V252.116ZM216.731 252.116H206.618V250.41L211.519 245.064C211.933 244.602 212.278 244.195 212.553 243.844C212.836 243.485 213.06 243.158 213.226 242.862C213.391 242.565 213.508 242.289 213.577 242.034C213.646 241.779 213.681 241.521 213.681 241.259C213.681 240.914 213.625 240.597 213.515 240.308C213.412 240.011 213.26 239.76 213.06 239.553C212.867 239.339 212.629 239.174 212.347 239.056C212.071 238.939 211.761 238.881 211.416 238.881C210.52 238.881 209.858 239.125 209.431 239.615C209.01 240.104 208.8 240.78 208.8 241.641H206.318C206.318 240.987 206.436 240.37 206.67 239.791C206.911 239.205 207.252 238.694 207.694 238.26C208.142 237.826 208.683 237.485 209.317 237.237C209.951 236.981 210.665 236.854 211.457 236.854C212.202 236.854 212.864 236.961 213.443 237.175C214.022 237.388 214.511 237.688 214.911 238.074C215.311 238.453 215.614 238.905 215.821 239.429C216.028 239.953 216.131 240.528 216.131 241.155C216.131 241.624 216.055 242.079 215.904 242.52C215.752 242.955 215.542 243.389 215.273 243.823C215.004 244.257 214.684 244.695 214.311 245.136C213.939 245.571 213.536 246.019 213.101 246.481L209.689 250.141H216.731V252.116ZM222.428 243.472H223.907C224.341 243.472 224.72 243.416 225.044 243.306C225.368 243.189 225.637 243.027 225.851 242.82C226.064 242.613 226.223 242.369 226.326 242.086C226.437 241.797 226.492 241.479 226.492 241.135C226.492 240.404 226.299 239.842 225.913 239.449C225.534 239.049 224.958 238.85 224.186 238.85C223.848 238.85 223.535 238.901 223.245 239.005C222.962 239.101 222.714 239.243 222.501 239.429C222.294 239.615 222.132 239.839 222.015 240.101C221.897 240.363 221.839 240.659 221.839 240.99H219.368C219.368 240.397 219.485 239.849 219.719 239.346C219.96 238.843 220.291 238.408 220.712 238.043C221.139 237.671 221.646 237.381 222.232 237.175C222.818 236.961 223.459 236.854 224.155 236.854C224.865 236.854 225.516 236.947 226.109 237.133C226.702 237.312 227.209 237.581 227.629 237.94C228.05 238.298 228.377 238.746 228.612 239.284C228.846 239.815 228.963 240.432 228.963 241.135C228.963 241.431 228.918 241.734 228.829 242.045C228.739 242.355 228.601 242.655 228.415 242.944C228.236 243.234 228.005 243.506 227.722 243.761C227.447 244.009 227.119 244.22 226.74 244.392C227.195 244.55 227.578 244.754 227.888 245.002C228.198 245.25 228.45 245.529 228.643 245.839C228.836 246.143 228.973 246.47 229.056 246.822C229.139 247.173 229.18 247.532 229.18 247.897C229.18 248.6 229.053 249.228 228.798 249.779C228.543 250.331 228.188 250.796 227.733 251.175C227.285 251.547 226.754 251.833 226.14 252.033C225.527 252.226 224.865 252.323 224.155 252.323C223.5 252.323 222.876 252.233 222.283 252.054C221.691 251.875 221.167 251.609 220.712 251.258C220.264 250.899 219.905 250.458 219.636 249.934C219.368 249.403 219.233 248.79 219.233 248.094H221.704C221.704 248.424 221.763 248.731 221.88 249.014C221.997 249.29 222.163 249.527 222.377 249.727C222.597 249.92 222.859 250.072 223.162 250.182C223.466 250.293 223.807 250.348 224.186 250.348C224.972 250.348 225.589 250.141 226.037 249.727C226.492 249.307 226.719 248.7 226.719 247.907C226.719 247.473 226.654 247.101 226.523 246.791C226.392 246.474 226.202 246.215 225.954 246.015C225.713 245.808 225.42 245.657 225.075 245.56C224.731 245.464 224.341 245.416 223.907 245.416H222.428V243.472ZM240.72 246.77H242.612V248.766H240.72V252.116H238.249V248.766H231.714L231.652 247.266L238.166 237.061H240.72V246.77ZM234.195 246.77H238.249V240.359L237.98 240.845L234.195 246.77ZM264.698 252.116H262.206V240.111L258.36 241.517V239.346L264.543 237.061H264.698V252.116ZM280.322 252.116H270.21V250.41L275.111 245.064C275.524 244.602 275.869 244.195 276.145 243.844C276.428 243.485 276.652 243.158 276.817 242.862C276.982 242.565 277.1 242.289 277.169 242.034C277.237 241.779 277.272 241.521 277.272 241.259C277.272 240.914 277.217 240.597 277.107 240.308C277.003 240.011 276.851 239.76 276.652 239.553C276.459 239.339 276.221 239.174 275.938 239.056C275.662 238.939 275.352 238.881 275.007 238.881C274.111 238.881 273.45 239.125 273.022 239.615C272.602 240.104 272.391 240.78 272.391 241.641H269.91C269.91 240.987 270.027 240.37 270.261 239.791C270.503 239.205 270.844 238.694 271.285 238.26C271.733 237.826 272.274 237.485 272.908 237.237C273.543 236.981 274.256 236.854 275.049 236.854C275.793 236.854 276.455 236.961 277.034 237.175C277.613 237.388 278.103 237.688 278.502 238.074C278.902 238.453 279.206 238.905 279.412 239.429C279.619 239.953 279.723 240.528 279.723 241.155C279.723 241.624 279.647 242.079 279.495 242.52C279.343 242.955 279.133 243.389 278.864 243.823C278.595 244.257 278.275 244.695 277.903 245.136C277.53 245.571 277.127 246.019 276.693 246.481L273.281 250.141H280.322V252.116ZM286.02 243.472H287.498C287.933 243.472 288.312 243.416 288.636 243.306C288.96 243.189 289.229 243.027 289.442 242.82C289.656 242.613 289.814 242.369 289.918 242.086C290.028 241.797 290.083 241.479 290.083 241.135C290.083 240.404 289.89 239.842 289.504 239.449C289.125 239.049 288.55 238.85 287.777 238.85C287.44 238.85 287.126 238.901 286.837 239.005C286.554 239.101 286.306 239.243 286.092 239.429C285.885 239.615 285.723 239.839 285.606 240.101C285.489 240.363 285.43 240.659 285.43 240.99H282.959C282.959 240.397 283.076 239.849 283.311 239.346C283.552 238.843 283.883 238.408 284.303 238.043C284.731 237.671 285.237 237.381 285.823 237.175C286.409 236.961 287.05 236.854 287.746 236.854C288.456 236.854 289.108 236.947 289.701 237.133C290.294 237.312 290.8 237.581 291.221 237.94C291.641 238.298 291.969 238.746 292.203 239.284C292.437 239.815 292.555 240.432 292.555 241.135C292.555 241.431 292.51 241.734 292.42 242.045C292.331 242.355 292.193 242.655 292.007 242.944C291.827 243.234 291.596 243.506 291.314 243.761C291.038 244.009 290.711 244.22 290.331 244.392C290.786 244.55 291.169 244.754 291.479 245.002C291.789 245.25 292.041 245.529 292.234 245.839C292.427 246.143 292.565 246.47 292.648 246.822C292.73 247.173 292.772 247.532 292.772 247.897C292.772 248.6 292.644 249.228 292.389 249.779C292.134 250.331 291.779 250.796 291.324 251.175C290.876 251.547 290.345 251.833 289.732 252.033C289.118 252.226 288.456 252.323 287.746 252.323C287.092 252.323 286.468 252.233 285.875 252.054C285.282 251.875 284.758 251.609 284.303 251.258C283.855 250.899 283.497 250.458 283.228 249.934C282.959 249.403 282.825 248.79 282.825 248.094H285.296C285.296 248.424 285.354 248.731 285.472 249.014C285.589 249.29 285.754 249.527 285.968 249.727C286.189 249.92 286.45 250.072 286.754 250.182C287.057 250.293 287.398 250.348 287.777 250.348C288.563 250.348 289.18 250.141 289.628 249.727C290.083 249.307 290.311 248.7 290.311 247.907C290.311 247.473 290.245 247.101 290.114 246.791C289.983 246.474 289.794 246.215 289.546 246.015C289.304 245.808 289.011 245.657 288.667 245.56C288.322 245.464 287.933 245.416 287.498 245.416H286.02V243.472ZM304.311 246.77H306.203V248.766H304.311V252.116H301.84V248.766H295.305L295.243 247.266L301.757 237.061H304.311V246.77ZM297.787 246.77H301.84V240.359L301.571 240.845L297.787 246.77Z" fill="white"/>
<rect y="41" width="537" height="323" rx="32" fill="#2D6472"/>
<rect y="41" width="537" height="323" rx="32" fill="url(#paint3_radial_421_2)"/>
<rect x="0.482275" y="41.4823" width="536.035" height="322.035" rx="31.5177" stroke="white" stroke-opacity="0.1" stroke-width="0.964549"/>
<g clip-path="url(#clip2_421_2)">
<path d="M230.931 92.5106C230.918 92.5106 230.907 92.5211 230.907 92.5341V156.107C230.907 160.417 229.209 164.536 226.191 167.567C223.172 170.598 219.068 172.302 214.776 172.302H151.43C144.025 172.302 138.082 178.316 138.082 185.704V438.481C138.082 445.915 144.072 451.882 151.43 451.882H214.776C219.068 451.882 223.172 453.587 226.191 456.617C229.209 459.648 230.907 463.768 230.907 468.077V531.674C230.907 539.108 236.898 545.075 244.256 545.075H539.136C583.144 545.075 618.802 509.275 618.802 465.094V159.091C618.802 114.909 583.144 79.1093 539.136 79.1093H244.303C236.905 79.1093 230.967 85.1104 230.954 92.4869C230.954 92.4999 230.944 92.5106 230.931 92.5106ZM526 265.496C526.013 265.496 526.024 265.506 526.024 265.519V438.481C526.024 445.915 520.034 451.882 512.675 451.882H247.039C242.746 451.882 238.643 450.177 235.624 447.147C232.605 444.116 230.907 439.996 230.907 435.687V358.689V265.496V188.498C230.907 184.188 232.605 180.069 235.624 177.038C238.643 174.007 242.746 172.302 247.039 172.302H323.733H512.628C520.034 172.302 525.977 178.316 525.977 185.704V265.472C525.977 265.485 525.987 265.496 526 265.496Z" fill="#306A79"/>
<path d="M230.931 92.5106C230.918 92.5106 230.907 92.5211 230.907 92.5341V156.107C230.907 160.417 229.209 164.536 226.191 167.567C223.172 170.598 219.068 172.302 214.776 172.302H151.43C144.025 172.302 138.082 178.316 138.082 185.704V438.481C138.082 445.915 144.072 451.882 151.43 451.882H214.776C219.068 451.882 223.172 453.587 226.191 456.617C229.209 459.648 230.907 463.768 230.907 468.077V531.674C230.907 539.108 236.898 545.075 244.256 545.075H539.136C583.144 545.075 618.802 509.275 618.802 465.094V159.091C618.802 114.909 583.144 79.1093 539.136 79.1093H244.303C236.905 79.1093 230.967 85.1104 230.954 92.4869C230.954 92.4999 230.944 92.5106 230.931 92.5106ZM526 265.496C526.013 265.496 526.024 265.506 526.024 265.519V438.481C526.024 445.915 520.034 451.882 512.675 451.882H247.039C242.746 451.882 238.643 450.177 235.624 447.147C232.605 444.116 230.907 439.996 230.907 435.687V358.689V265.496V188.498C230.907 184.188 232.605 180.069 235.624 177.038C238.643 174.007 242.746 172.302 247.039 172.302H323.733H512.628C520.034 172.302 525.977 178.316 525.977 185.704V265.472C525.977 265.485 525.987 265.496 526 265.496Z" fill="url(#paint4_radial_421_2)"/>
<path d="M244.303 79.5917H539.136C582.875 79.5917 618.32 115.174 618.32 159.091V465.094C618.32 509.011 582.875 544.593 539.136 544.593H244.255C237.164 544.593 231.389 538.843 231.389 531.674V468.077C231.389 463.641 229.641 459.399 226.532 456.277C223.422 453.156 219.196 451.399 214.776 451.399H151.43C144.339 451.399 138.564 445.649 138.564 438.48V185.704C138.564 178.58 144.294 172.785 151.43 172.785H214.776C219.196 172.785 223.422 171.029 226.532 167.907C229.641 164.786 231.389 160.543 231.389 156.107V92.6962C231.418 92.6322 231.437 92.5615 231.437 92.4872C231.449 85.3741 237.175 79.5917 244.303 79.5917ZM247.039 171.82C242.618 171.82 238.392 173.576 235.283 176.697C232.173 179.819 230.425 184.062 230.425 188.498V435.686C230.425 440.123 232.173 444.366 235.283 447.487C238.392 450.609 242.618 452.364 247.039 452.364H512.675C520.3 452.364 526.506 446.181 526.506 438.48V265.519C526.506 265.444 526.489 265.374 526.459 265.31V185.704C526.459 178.053 520.303 171.82 512.628 171.82H247.039Z" stroke="white" stroke-opacity="0.1" stroke-width="0.964549"/>
</g>
<path d="M41.4757 106.458V79.4506H49.4236C52.5873 79.4506 55.1851 80.0036 57.2171 81.1097C59.2748 82.1899 60.7924 83.7461 61.7698 85.7781C62.7729 87.7843 63.2745 90.2021 63.2745 93.0315C63.2745 95.8094 62.7729 98.2015 61.7698 100.208C60.7924 102.214 59.2748 103.757 57.2171 104.838C55.1851 105.918 52.5873 106.458 49.4236 106.458H41.4757ZM44.7166 103.757H49.3464C51.97 103.757 54.0534 103.333 55.5967 102.484C57.14 101.61 58.246 100.375 58.9147 98.7802C59.5835 97.1598 59.9179 95.2435 59.9179 93.0315C59.9179 90.768 59.5835 88.826 58.9147 87.2056C58.246 85.5852 57.14 84.3377 55.5967 83.4632C54.0534 82.5886 51.97 82.1514 49.3464 82.1514H44.7166V103.757ZM68.1542 106.458V87.0127H71.3951V106.458H68.1542ZM69.7746 82.8844C69.1316 82.8844 68.5915 82.6787 68.1542 82.2671C67.7427 81.8298 67.5369 81.2897 67.5369 80.6467C67.5369 80.0036 67.7427 79.4892 68.1542 79.1034C68.5915 78.6918 69.1316 78.4861 69.7746 78.4861C70.392 78.4861 70.9192 78.6918 71.3565 79.1034C71.7938 79.4892 72.0124 80.0036 72.0124 80.6467C72.0124 81.2897 71.7938 81.8298 71.3565 82.2671C70.9192 82.6787 70.392 82.8844 69.7746 82.8844ZM77.1143 106.458V87.0127H80.0465L80.2008 90.4079C80.8181 89.199 81.6927 88.2602 82.8244 87.5914C83.9819 86.8969 85.2936 86.5497 86.7598 86.5497C88.2773 86.5497 89.5891 86.8584 90.6951 87.4757C91.8011 88.0673 92.6628 88.9804 93.2801 90.215C93.8974 91.4239 94.2061 92.9672 94.2061 94.8448V106.458H90.9652V95.1921C90.9652 93.2373 90.5279 91.7711 89.6534 90.7937C88.8046 89.8163 87.5957 89.3276 86.0267 89.3276C84.9464 89.3276 83.9819 89.5977 83.1331 90.1378C82.2842 90.6523 81.6026 91.411 81.0882 92.4142C80.5995 93.3916 80.3551 94.6133 80.3551 96.0795V106.458H77.1143ZM105.596 106.921C104.027 106.921 102.715 106.651 101.661 106.111C100.606 105.545 99.8218 104.812 99.3073 103.912C98.7929 102.986 98.5357 101.982 98.5357 100.902C98.5357 99.5904 98.8701 98.4844 99.5388 97.5842C100.233 96.6582 101.198 95.9637 102.432 95.5007C103.693 95.012 105.172 94.7677 106.869 94.7677H112.001C112.001 93.5588 111.808 92.5556 111.422 91.7583C111.062 90.9352 110.522 90.3179 109.802 89.9063C109.107 89.4948 108.233 89.289 107.178 89.289C105.943 89.289 104.876 89.5977 103.976 90.215C103.076 90.8323 102.523 91.7454 102.317 92.9543H98.9987C99.153 91.5654 99.616 90.4079 100.388 89.4819C101.185 88.5303 102.188 87.8101 103.397 87.3213C104.606 86.8069 105.866 86.5497 107.178 86.5497C108.979 86.5497 110.47 86.8841 111.654 87.5528C112.862 88.1959 113.763 89.109 114.354 90.2922C114.946 91.4496 115.242 92.8257 115.242 94.4204V106.458H112.348L112.155 103.024C111.898 103.564 111.564 104.079 111.152 104.567C110.766 105.03 110.303 105.442 109.763 105.802C109.223 106.136 108.606 106.407 107.911 106.612C107.242 106.818 106.471 106.921 105.596 106.921ZM106.098 104.182C106.998 104.182 107.808 104.002 108.528 103.642C109.274 103.256 109.905 102.741 110.419 102.098C110.933 101.429 111.319 100.696 111.576 99.8991C111.859 99.1017 112.001 98.2658 112.001 97.3912V97.2755H107.139C105.879 97.2755 104.863 97.4298 104.092 97.7385C103.32 98.0214 102.767 98.433 102.432 98.9731C102.098 99.4875 101.931 100.079 101.931 100.748C101.931 101.442 102.085 102.047 102.394 102.561C102.728 103.076 103.204 103.474 103.821 103.757C104.464 104.04 105.223 104.182 106.098 104.182ZM120.255 106.458V87.0127H123.187L123.419 90.7166C123.856 89.842 124.409 89.0961 125.078 88.4788C125.772 87.8615 126.596 87.3857 127.547 87.0513C128.525 86.7169 129.631 86.5497 130.865 86.5497V89.9449H129.669C128.846 89.9449 128.062 90.0607 127.316 90.2922C126.57 90.4979 125.901 90.8452 125.309 91.3339C124.744 91.8226 124.293 92.4913 123.959 93.3401C123.65 94.1632 123.496 95.1921 123.496 96.4267V106.458H120.255ZM142.5 106.921C140.7 106.921 139.079 106.509 137.639 105.686C136.198 104.838 135.067 103.654 134.244 102.137C133.421 100.594 133.009 98.8059 133.009 96.7739C133.009 94.6905 133.421 92.89 134.244 91.3725C135.092 89.8292 136.237 88.646 137.677 87.8229C139.144 86.9741 140.777 86.5497 142.577 86.5497C144.429 86.5497 146.063 86.9741 147.477 87.8229C148.918 88.646 150.049 89.8292 150.872 91.3725C151.721 92.89 152.146 94.6776 152.146 96.7354C152.146 98.7931 151.721 100.594 150.872 102.137C150.024 103.654 148.879 104.838 147.439 105.686C145.998 106.509 144.352 106.921 142.5 106.921ZM142.539 104.143C143.645 104.143 144.674 103.873 145.625 103.333C146.577 102.767 147.349 101.931 147.94 100.825C148.532 99.719 148.828 98.3558 148.828 96.7354C148.828 95.0892 148.532 93.726 147.94 92.6457C147.374 91.5396 146.616 90.7166 145.664 90.1764C144.738 89.6105 143.709 89.3276 142.577 89.3276C141.497 89.3276 140.468 89.6105 139.491 90.1764C138.539 90.7166 137.767 91.5396 137.176 92.6457C136.61 93.726 136.327 95.0892 136.327 96.7354C136.327 98.3558 136.61 99.719 137.176 100.825C137.767 101.931 138.526 102.767 139.452 103.333C140.404 103.873 141.433 104.143 142.539 104.143Z" fill="white"/>
<path d="M47.9805 305.198H45.1562V291.593L40.7969 293.186V290.725L47.8047 288.135H47.9805V305.198ZM65.6875 305.198H54.2266V303.264L59.7812 297.206C60.25 296.682 60.6406 296.221 60.9531 295.823C61.2734 295.417 61.5273 295.046 61.7148 294.71C61.9023 294.374 62.0352 294.061 62.1133 293.772C62.1914 293.483 62.2305 293.19 62.2305 292.893C62.2305 292.503 62.168 292.143 62.043 291.815C61.9258 291.479 61.7539 291.194 61.5273 290.96C61.3086 290.718 61.0391 290.53 60.7187 290.397C60.4062 290.264 60.0547 290.198 59.6641 290.198C58.6484 290.198 57.8984 290.475 57.4141 291.03C56.9375 291.585 56.6992 292.35 56.6992 293.327H53.8867C53.8867 292.585 54.0195 291.885 54.2852 291.229C54.5586 290.565 54.9453 289.987 55.4453 289.495C55.9531 289.003 56.5664 288.616 57.2852 288.335C58.0039 288.046 58.8125 287.901 59.7109 287.901C60.5547 287.901 61.3047 288.022 61.9609 288.264C62.6172 288.507 63.1719 288.846 63.625 289.284C64.0781 289.714 64.4219 290.225 64.6562 290.819C64.8906 291.413 65.0078 292.065 65.0078 292.776C65.0078 293.307 64.9219 293.823 64.75 294.323C64.5781 294.815 64.3398 295.307 64.0352 295.8C63.7305 296.292 63.3672 296.788 62.9453 297.288C62.5234 297.78 62.0664 298.288 61.5742 298.811L57.707 302.96H65.6875V305.198ZM72.1445 295.401H73.8203C74.3125 295.401 74.7422 295.339 75.1094 295.214C75.4766 295.081 75.7812 294.897 76.0234 294.663C76.2656 294.428 76.4453 294.151 76.5625 293.831C76.6875 293.503 76.75 293.143 76.75 292.753C76.75 291.925 76.5312 291.288 76.0937 290.843C75.6641 290.389 75.0117 290.163 74.1367 290.163C73.7539 290.163 73.3984 290.221 73.0703 290.339C72.75 290.448 72.4687 290.608 72.2266 290.819C71.9922 291.03 71.8086 291.284 71.6758 291.581C71.543 291.878 71.4766 292.214 71.4766 292.589H68.6758C68.6758 291.917 68.8086 291.296 69.0742 290.725C69.3477 290.155 69.7227 289.663 70.1992 289.249C70.6836 288.827 71.2578 288.499 71.9219 288.264C72.5859 288.022 73.3125 287.901 74.1016 287.901C74.9062 287.901 75.6445 288.007 76.3164 288.218C76.9883 288.421 77.5625 288.725 78.0391 289.132C78.5156 289.538 78.8867 290.046 79.1523 290.655C79.418 291.257 79.5508 291.956 79.5508 292.753C79.5508 293.089 79.5 293.432 79.3984 293.784C79.2969 294.135 79.1406 294.475 78.9297 294.803C78.7266 295.132 78.4648 295.44 78.1445 295.729C77.832 296.01 77.4609 296.249 77.0312 296.444C77.5469 296.624 77.9805 296.854 78.332 297.135C78.6836 297.417 78.9687 297.733 79.1875 298.085C79.4062 298.428 79.5625 298.8 79.6562 299.198C79.75 299.596 79.7969 300.003 79.7969 300.417C79.7969 301.214 79.6523 301.925 79.3633 302.55C79.0742 303.175 78.6719 303.702 78.1562 304.132C77.6484 304.553 77.0469 304.878 76.3516 305.104C75.6562 305.323 74.9062 305.432 74.1016 305.432C73.3594 305.432 72.6523 305.331 71.9805 305.128C71.3086 304.925 70.7148 304.624 70.1992 304.225C69.6914 303.819 69.2852 303.319 68.9805 302.725C68.6758 302.124 68.5234 301.428 68.5234 300.639H71.3242C71.3242 301.014 71.3906 301.362 71.5234 301.682C71.6562 301.995 71.8437 302.264 72.0859 302.491C72.3359 302.71 72.6328 302.882 72.9766 303.007C73.3203 303.132 73.707 303.194 74.1367 303.194C75.0273 303.194 75.7266 302.96 76.2344 302.491C76.75 302.014 77.0078 301.327 77.0078 300.428C77.0078 299.936 76.9336 299.514 76.7852 299.163C76.6367 298.803 76.4219 298.51 76.1406 298.284C75.8672 298.05 75.5352 297.878 75.1445 297.768C74.7539 297.659 74.3125 297.604 73.8203 297.604H72.1445V295.401ZM92.875 299.139H95.0195V301.401H92.875V305.198H90.0742V301.401H82.668L82.5977 299.702L89.9805 288.135H92.875V299.139ZM85.4805 299.139H90.0742V291.874L89.7695 292.425L85.4805 299.139ZM120.051 305.198H117.227V291.593L112.867 293.186V290.725L119.875 288.135H120.051V305.198ZM137.758 305.198H126.297V303.264L131.852 297.206C132.32 296.682 132.711 296.221 133.023 295.823C133.344 295.417 133.598 295.046 133.785 294.71C133.973 294.374 134.105 294.061 134.184 293.772C134.262 293.483 134.301 293.19 134.301 292.893C134.301 292.503 134.238 292.143 134.113 291.815C133.996 291.479 133.824 291.194 133.598 290.96C133.379 290.718 133.109 290.53 132.789 290.397C132.477 290.264 132.125 290.198 131.734 290.198C130.719 290.198 129.969 290.475 129.484 291.03C129.008 291.585 128.77 292.35 128.77 293.327H125.957C125.957 292.585 126.09 291.885 126.355 291.229C126.629 290.565 127.016 289.987 127.516 289.495C128.023 289.003 128.637 288.616 129.355 288.335C130.074 288.046 130.883 287.901 131.781 287.901C132.625 287.901 133.375 288.022 134.031 288.264C134.687 288.507 135.242 288.846 135.695 289.284C136.148 289.714 136.492 290.225 136.727 290.819C136.961 291.413 137.078 292.065 137.078 292.776C137.078 293.307 136.992 293.823 136.82 294.323C136.648 294.815 136.41 295.307 136.105 295.8C135.801 296.292 135.437 296.788 135.016 297.288C134.594 297.78 134.137 298.288 133.645 298.811L129.777 302.96H137.758V305.198ZM144.215 295.401H145.891C146.383 295.401 146.812 295.339 147.18 295.214C147.547 295.081 147.852 294.897 148.094 294.663C148.336 294.428 148.516 294.151 148.633 293.831C148.758 293.503 148.82 293.143 148.82 292.753C148.82 291.925 148.602 291.288 148.164 290.843C147.734 290.389 147.082 290.163 146.207 290.163C145.824 290.163 145.469 290.221 145.141 290.339C144.82 290.448 144.539 290.608 144.297 290.819C144.062 291.03 143.879 291.284 143.746 291.581C143.613 291.878 143.547 292.214 143.547 292.589H140.746C140.746 291.917 140.879 291.296 141.145 290.725C141.418 290.155 141.793 289.663 142.27 289.249C142.754 288.827 143.328 288.499 143.992 288.264C144.656 288.022 145.383 287.901 146.172 287.901C146.977 287.901 147.715 288.007 148.387 288.218C149.059 288.421 149.633 288.725 150.109 289.132C150.586 289.538 150.957 290.046 151.223 290.655C151.488 291.257 151.621 291.956 151.621 292.753C151.621 293.089 151.57 293.432 151.469 293.784C151.367 294.135 151.211 294.475 151 294.803C150.797 295.132 150.535 295.44 150.215 295.729C149.902 296.01 149.531 296.249 149.102 296.444C149.617 296.624 150.051 296.854 150.402 297.135C150.754 297.417 151.039 297.733 151.258 298.085C151.477 298.428 151.633 298.8 151.727 299.198C151.82 299.596 151.867 300.003 151.867 300.417C151.867 301.214 151.723 301.925 151.434 302.55C151.145 303.175 150.742 303.702 150.227 304.132C149.719 304.553 149.117 304.878 148.422 305.104C147.727 305.323 146.977 305.432 146.172 305.432C145.43 305.432 144.723 305.331 144.051 305.128C143.379 304.925 142.785 304.624 142.27 304.225C141.762 303.819 141.355 303.319 141.051 302.725C140.746 302.124 140.594 301.428 140.594 300.639H143.395C143.395 301.014 143.461 301.362 143.594 301.682C143.727 301.995 143.914 302.264 144.156 302.491C144.406 302.71 144.703 302.882 145.047 303.007C145.391 303.132 145.777 303.194 146.207 303.194C147.098 303.194 147.797 302.96 148.305 302.491C148.82 302.014 149.078 301.327 149.078 300.428C149.078 299.936 149.004 299.514 148.855 299.163C148.707 298.803 148.492 298.51 148.211 298.284C147.937 298.05 147.605 297.878 147.215 297.768C146.824 297.659 146.383 297.604 145.891 297.604H144.215V295.401ZM164.945 299.139H167.09V301.401H164.945V305.198H162.145V301.401H154.738L154.668 299.702L162.051 288.135H164.945V299.139ZM157.551 299.139H162.145V291.874L161.84 292.425L157.551 299.139ZM192.121 305.198H189.297V291.593L184.937 293.186V290.725L191.945 288.135H192.121V305.198ZM209.828 305.198H198.367V303.264L203.922 297.206C204.391 296.682 204.781 296.221 205.094 295.823C205.414 295.417 205.668 295.046 205.855 294.71C206.043 294.374 206.176 294.061 206.254 293.772C206.332 293.483 206.371 293.19 206.371 292.893C206.371 292.503 206.309 292.143 206.184 291.815C206.066 291.479 205.895 291.194 205.668 290.96C205.449 290.718 205.18 290.53 204.859 290.397C204.547 290.264 204.195 290.198 203.805 290.198C202.789 290.198 202.039 290.475 201.555 291.03C201.078 291.585 200.84 292.35 200.84 293.327H198.027C198.027 292.585 198.16 291.885 198.426 291.229C198.699 290.565 199.086 289.987 199.586 289.495C200.094 289.003 200.707 288.616 201.426 288.335C202.145 288.046 202.953 287.901 203.852 287.901C204.695 287.901 205.445 288.022 206.102 288.264C206.758 288.507 207.312 288.846 207.766 289.284C208.219 289.714 208.562 290.225 208.797 290.819C209.031 291.413 209.148 292.065 209.148 292.776C209.148 293.307 209.062 293.823 208.891 294.323C208.719 294.815 208.48 295.307 208.176 295.8C207.871 296.292 207.508 296.788 207.086 297.288C206.664 297.78 206.207 298.288 205.715 298.811L201.848 302.96H209.828V305.198ZM216.285 295.401H217.961C218.453 295.401 218.883 295.339 219.25 295.214C219.617 295.081 219.922 294.897 220.164 294.663C220.406 294.428 220.586 294.151 220.703 293.831C220.828 293.503 220.891 293.143 220.891 292.753C220.891 291.925 220.672 291.288 220.234 290.843C219.805 290.389 219.152 290.163 218.277 290.163C217.895 290.163 217.539 290.221 217.211 290.339C216.891 290.448 216.609 290.608 216.367 290.819C216.133 291.03 215.949 291.284 215.816 291.581C215.684 291.878 215.617 292.214 215.617 292.589H212.816C212.816 291.917 212.949 291.296 213.215 290.725C213.488 290.155 213.863 289.663 214.34 289.249C214.824 288.827 215.398 288.499 216.062 288.264C216.727 288.022 217.453 287.901 218.242 287.901C219.047 287.901 219.785 288.007 220.457 288.218C221.129 288.421 221.703 288.725 222.18 289.132C222.656 289.538 223.027 290.046 223.293 290.655C223.559 291.257 223.691 291.956 223.691 292.753C223.691 293.089 223.641 293.432 223.539 293.784C223.437 294.135 223.281 294.475 223.07 294.803C222.867 295.132 222.605 295.44 222.285 295.729C221.973 296.01 221.602 296.249 221.172 296.444C221.687 296.624 222.121 296.854 222.473 297.135C222.824 297.417 223.109 297.733 223.328 298.085C223.547 298.428 223.703 298.8 223.797 299.198C223.891 299.596 223.937 300.003 223.937 300.417C223.937 301.214 223.793 301.925 223.504 302.55C223.215 303.175 222.812 303.702 222.297 304.132C221.789 304.553 221.187 304.878 220.492 305.104C219.797 305.323 219.047 305.432 218.242 305.432C217.5 305.432 216.793 305.331 216.121 305.128C215.449 304.925 214.855 304.624 214.34 304.225C213.832 303.819 213.426 303.319 213.121 302.725C212.816 302.124 212.664 301.428 212.664 300.639H215.465C215.465 301.014 215.531 301.362 215.664 301.682C215.797 301.995 215.984 302.264 216.227 302.491C216.477 302.71 216.773 302.882 217.117 303.007C217.461 303.132 217.848 303.194 218.277 303.194C219.168 303.194 219.867 302.96 220.375 302.491C220.891 302.014 221.148 301.327 221.148 300.428C221.148 299.936 221.074 299.514 220.926 299.163C220.777 298.803 220.562 298.51 220.281 298.284C220.008 298.05 219.676 297.878 219.285 297.768C218.895 297.659 218.453 297.604 217.961 297.604H216.285V295.401ZM237.016 299.139H239.16V301.401H237.016V305.198H234.215V301.401H226.809L226.738 299.702L234.121 288.135H237.016V299.139ZM229.621 299.139H234.215V291.874L233.91 292.425L229.621 299.139ZM264.191 305.198H261.367V291.593L257.008 293.186V290.725L264.016 288.135H264.191V305.198ZM281.898 305.198H270.437V303.264L275.992 297.206C276.461 296.682 276.852 296.221 277.164 295.823C277.484 295.417 277.738 295.046 277.926 294.71C278.113 294.374 278.246 294.061 278.324 293.772C278.402 293.483 278.441 293.19 278.441 292.893C278.441 292.503 278.379 292.143 278.254 291.815C278.137 291.479 277.965 291.194 277.738 290.96C277.52 290.718 277.25 290.53 276.93 290.397C276.617 290.264 276.266 290.198 275.875 290.198C274.859 290.198 274.109 290.475 273.625 291.03C273.148 291.585 272.91 292.35 272.91 293.327H270.098C270.098 292.585 270.23 291.885 270.496 291.229C270.77 290.565 271.156 289.987 271.656 289.495C272.164 289.003 272.777 288.616 273.496 288.335C274.215 288.046 275.023 287.901 275.922 287.901C276.766 287.901 277.516 288.022 278.172 288.264C278.828 288.507 279.383 288.846 279.836 289.284C280.289 289.714 280.633 290.225 280.867 290.819C281.102 291.413 281.219 292.065 281.219 292.776C281.219 293.307 281.133 293.823 280.961 294.323C280.789 294.815 280.551 295.307 280.246 295.8C279.941 296.292 279.578 296.788 279.156 297.288C278.734 297.78 278.277 298.288 277.785 298.811L273.918 302.96H281.898V305.198ZM288.355 295.401H290.031C290.523 295.401 290.953 295.339 291.32 295.214C291.687 295.081 291.992 294.897 292.234 294.663C292.477 294.428 292.656 294.151 292.773 293.831C292.898 293.503 292.961 293.143 292.961 292.753C292.961 291.925 292.742 291.288 292.305 290.843C291.875 290.389 291.223 290.163 290.348 290.163C289.965 290.163 289.609 290.221 289.281 290.339C288.961 290.448 288.68 290.608 288.437 290.819C288.203 291.03 288.02 291.284 287.887 291.581C287.754 291.878 287.687 292.214 287.687 292.589H284.887C284.887 291.917 285.02 291.296 285.285 290.725C285.559 290.155 285.934 289.663 286.41 289.249C286.895 288.827 287.469 288.499 288.133 288.264C288.797 288.022 289.523 287.901 290.312 287.901C291.117 287.901 291.855 288.007 292.527 288.218C293.199 288.421 293.773 288.725 294.25 289.132C294.727 289.538 295.098 290.046 295.363 290.655C295.629 291.257 295.762 291.956 295.762 292.753C295.762 293.089 295.711 293.432 295.609 293.784C295.508 294.135 295.352 294.475 295.141 294.803C294.937 295.132 294.676 295.44 294.355 295.729C294.043 296.01 293.672 296.249 293.242 296.444C293.758 296.624 294.191 296.854 294.543 297.135C294.895 297.417 295.18 297.733 295.398 298.085C295.617 298.428 295.773 298.8 295.867 299.198C295.961 299.596 296.008 300.003 296.008 300.417C296.008 301.214 295.863 301.925 295.574 302.55C295.285 303.175 294.883 303.702 294.367 304.132C293.859 304.553 293.258 304.878 292.562 305.104C291.867 305.323 291.117 305.432 290.312 305.432C289.57 305.432 288.863 305.331 288.191 305.128C287.52 304.925 286.926 304.624 286.41 304.225C285.902 303.819 285.496 303.319 285.191 302.725C284.887 302.124 284.734 301.428 284.734 300.639H287.535C287.535 301.014 287.602 301.362 287.734 301.682C287.867 301.995 288.055 302.264 288.297 302.491C288.547 302.71 288.844 302.882 289.187 303.007C289.531 303.132 289.918 303.194 290.348 303.194C291.238 303.194 291.937 302.96 292.445 302.491C292.961 302.014 293.219 301.327 293.219 300.428C293.219 299.936 293.145 299.514 292.996 299.163C292.848 298.803 292.633 298.51 292.352 298.284C292.078 298.05 291.746 297.878 291.355 297.768C290.965 297.659 290.523 297.604 290.031 297.604H288.355V295.401ZM309.086 299.139H311.23V301.401H309.086V305.198H306.285V301.401H298.879L298.809 299.702L306.191 288.135H309.086V299.139ZM301.691 299.139H306.285V291.874L305.98 292.425L301.691 299.139Z" fill="white"/>
<defs>
<radialGradient id="paint0_radial_421_2" cx="0" cy="0" r="1" gradientTransform="matrix(104.791 333.975 -333.74 104.865 172.709 35.9226)" gradientUnits="userSpaceOnUse">
<stop stop-color="#7599A1" stop-opacity="0.8"/>
<stop offset="1" stop-color="#628B95" stop-opacity="0"/>
</radialGradient>
<radialGradient id="paint1_radial_421_2" cx="0" cy="0" r="1" gradientTransform="matrix(220.284 269.014 -268.99 220.303 111.845 154.94)" gradientUnits="userSpaceOnUse">
<stop stop-color="#628B95" stop-opacity="0.7"/>
<stop offset="1" stop-color="#628B95" stop-opacity="0"/>
</radialGradient>
<radialGradient id="paint2_radial_421_2" cx="0" cy="0" r="1" gradientTransform="matrix(126.014 401.616 -401.333 126.103 153.308 62.1981)" gradientUnits="userSpaceOnUse">
<stop stop-color="#7599A1" stop-opacity="0.8"/>
<stop offset="1" stop-color="#628B95" stop-opacity="0"/>
</radialGradient>
<radialGradient id="paint3_radial_421_2" cx="0" cy="0" r="1" gradientTransform="matrix(0 506 -505.991 0.0440927 269 80)" gradientUnits="userSpaceOnUse">
<stop stop-color="#6A95A0"/>
<stop offset="1" stop-color="#628B95" stop-opacity="0"/>
</radialGradient>
<radialGradient id="paint4_radial_421_2" cx="0" cy="0" r="1" gradientTransform="matrix(166 516.5 -516.135 166.112 212 118)" gradientUnits="userSpaceOnUse">
<stop stop-color="#7599A1"/>
<stop offset="1" stop-color="#628B95" stop-opacity="0"/>
</radialGradient>
<clipPath id="clip0_421_2">
<path d="M172.746 27.8824L464.777 27.8824V213.52C464.777 226.488 454.265 237 441.297 237H172.746V27.8824Z" fill="white"/>
</clipPath>
<clipPath id="clip1_421_2">
<path d="M153.353 52.5294H504.529V275.765C504.529 291.359 491.888 304 476.294 304H153.353V52.5294Z" fill="white"/>
</clipPath>
<clipPath id="clip2_421_2">
<path d="M138 79H536V332C536 349.673 521.673 364 504 364H138V79Z" fill="white"/>
</clipPath>
</defs>
</svg>
