<svg preserveAspectRatio="none" width="100%" height="100%" overflow="visible" style="display: block;" viewBox="0 0 430.43 258.876" fill="none" xmlns="http://www.w3.org/2000/svg">
<g id="Frame 1114" clip-path="url(#clip0_0_27)">
<foreignObject x="-86.4849" y="-86.4849" width="603.399" height="431.846"><div xmlns="http://www.w3.org/1999/xhtml" style="backdrop-filter:blur(43.24px);clip-path:url(#bgblur_1_0_27_clip_path);height:100%;width:100%"></div></foreignObject><g id="Rectangle 4" data-figma-bg-blur-radius="86.4849">
<path d="M0 24.7284C0 11.0713 11.0713 0 24.7285 0H405.701C419.358 0 430.43 11.0713 430.43 24.7285V234.148C430.43 247.805 419.358 258.876 405.701 258.876H24.7285C11.0713 258.876 0 247.805 0 234.148V24.7284Z" fill="var(--fill-0, white)" fill-opacity="0.1"/>
<path d="M24.7285 0.386719H405.701C419.145 0.386719 430.043 11.2848 430.043 24.7285V234.147C430.043 247.591 419.145 258.489 405.701 258.489H24.7285C11.2848 258.489 0.386719 247.591 0.386719 234.147V24.7285C0.386719 11.2848 11.2848 0.386719 24.7285 0.386719Z" stroke="var(--stroke-0, white)" stroke-opacity="0.1" stroke-width="0.772764"/>
</g>
<foreignObject x="5.76194" y="-69.5611" width="568.706" height="568.706"><div xmlns="http://www.w3.org/1999/xhtml" style="backdrop-filter:blur(43.24px);clip-path:url(#bgblur_2_0_27_clip_path);height:100%;width:100%"></div></foreignObject><g id="Vector" data-figma-bg-blur-radius="86.4849">
<path d="M171.158 28.3052C171.146 28.3052 171.137 28.3142 171.137 28.3253V82.3168C171.137 85.9765 169.694 89.4754 167.129 92.0493C164.563 94.6232 161.076 96.071 157.428 96.071H103.591C97.2977 96.071 92.2468 101.179 92.2468 107.452V322.131C92.2468 328.445 97.3378 333.513 103.591 333.513H157.428C161.076 333.513 164.563 334.96 167.129 337.534C169.694 340.108 171.137 343.607 171.137 347.267V401.278C171.137 407.592 176.228 412.66 182.482 412.66H420.276C457.677 412.66 487.983 382.256 487.983 344.733V84.8504C487.983 47.3279 457.677 16.9238 420.276 16.9238L182.522 16.9238C176.235 16.9238 171.188 22.0204 171.178 28.2851C171.178 28.2961 171.169 28.3052 171.158 28.3052ZM409.112 175.218C409.123 175.218 409.132 175.227 409.132 175.238V322.131C409.132 328.445 404.041 333.513 397.788 333.513H184.847C181.199 333.513 177.712 332.065 175.146 329.491C172.581 326.917 171.137 323.418 171.137 319.758V254.365V175.218V109.825C171.137 106.165 172.581 102.667 175.146 100.093C177.712 97.5188 181.199 96.071 184.847 96.071H250.028H397.748C404.041 96.071 409.092 101.179 409.092 107.452V175.198C409.092 175.209 409.101 175.218 409.112 175.218Z" fill="var(--fill-0, white)" fill-opacity="0.1"/>
<path d="M182.522 17.3105L420.276 17.3105C457.462 17.3105 487.596 47.5403 487.596 84.8506V344.733C487.596 382.044 457.462 412.273 420.276 412.273H182.482C176.442 412.273 171.524 407.379 171.524 401.278V347.267C171.524 343.505 170.04 339.908 167.402 337.262C164.764 334.615 161.178 333.126 157.427 333.126H103.592C97.5517 333.126 92.6335 328.232 92.6335 322.131V107.452C92.6337 101.39 97.5135 96.457 103.592 96.457H157.427C161.178 96.457 164.764 94.9689 167.402 92.3223C170.04 89.6755 171.524 86.0778 171.524 82.3164V28.456C171.548 28.4039 171.564 28.3468 171.564 28.2861C171.575 22.2325 176.451 17.3105 182.522 17.3105ZM184.847 95.6846C181.097 95.6846 177.511 97.1735 174.873 99.8203C172.235 102.467 170.751 106.064 170.751 109.825V319.759C170.751 323.52 172.235 327.117 174.873 329.764C177.511 332.41 181.097 333.898 184.847 333.898H397.788C404.255 333.898 409.518 328.658 409.518 322.131V175.238C409.518 175.176 409.504 175.117 409.478 175.063V107.452C409.478 100.967 404.257 95.6846 397.748 95.6846H184.847Z" stroke="var(--stroke-0, white)" stroke-opacity="0.1" stroke-width="0.772764"/>
</g>
</g>
<defs>
<clipPath id="bgblur_1_0_27_clip_path" transform="translate(86.4849 86.4849)"><path d="M0 24.7284C0 11.0713 11.0713 0 24.7285 0H405.701C419.358 0 430.43 11.0713 430.43 24.7285V234.148C430.43 247.805 419.358 258.876 405.701 258.876H24.7285C11.0713 258.876 0 247.805 0 234.148V24.7284Z"/>
</clipPath><clipPath id="bgblur_2_0_27_clip_path" transform="translate(-5.76194 69.5611)"><path d="M171.158 28.3052C171.146 28.3052 171.137 28.3142 171.137 28.3253V82.3168C171.137 85.9765 169.694 89.4754 167.129 92.0493C164.563 94.6232 161.076 96.071 157.428 96.071H103.591C97.2977 96.071 92.2468 101.179 92.2468 107.452V322.131C92.2468 328.445 97.3378 333.513 103.591 333.513H157.428C161.076 333.513 164.563 334.96 167.129 337.534C169.694 340.108 171.137 343.607 171.137 347.267V401.278C171.137 407.592 176.228 412.66 182.482 412.66H420.276C457.677 412.66 487.983 382.256 487.983 344.733V84.8504C487.983 47.3279 457.677 16.9238 420.276 16.9238L182.522 16.9238C176.235 16.9238 171.188 22.0204 171.178 28.2851C171.178 28.2961 171.169 28.3052 171.158 28.3052ZM409.112 175.218C409.123 175.218 409.132 175.227 409.132 175.238V322.131C409.132 328.445 404.041 333.513 397.788 333.513H184.847C181.199 333.513 177.712 332.065 175.146 329.491C172.581 326.917 171.137 323.418 171.137 319.758V254.365V175.218V109.825C171.137 106.165 172.581 102.667 175.146 100.093C177.712 97.5188 181.199 96.071 184.847 96.071H250.028H397.748C404.041 96.071 409.092 101.179 409.092 107.452V175.198C409.092 175.209 409.101 175.218 409.112 175.218Z"/>
</clipPath><clipPath id="clip0_0_27">
<rect width="430.43" height="258.876" fill="white"/>
</clipPath>
</defs>
</svg>
