<svg preserveAspectRatio="none" width="100%" height="100%" overflow="visible" style="display: block;" viewBox="0 0 97 25" fill="none" xmlns="http://www.w3.org/2000/svg">
<g id="Union">
<path fill-rule="evenodd" clip-rule="evenodd" d="M57.4891 6.16502C59.4121 6.16503 60.9623 6.66559 62.0593 7.74028C63.1236 8.78305 63.6394 10.2455 63.6705 12.0539L63.672 12.23V18.8615C63.672 20.5316 64.1239 21.6399 64.923 22.3106L65.3531 22.6715L62.8909 25L62.5593 24.7725C61.8724 24.3013 61.3252 23.7404 60.9278 23.0891C60.4389 23.5447 59.852 23.9106 59.1743 24.1893L59.1741 24.1892C58.2626 24.5732 57.2438 24.76 56.1262 24.76C54.2141 24.76 52.6233 24.2315 51.4046 23.132L51.4027 23.1304L51.4009 23.1288C50.2 22.0232 49.6107 20.5614 49.6107 18.795C49.6107 16.9739 50.2863 15.5095 51.6434 14.459L51.777 14.3586C53.2007 13.2962 55.1472 12.7966 57.5555 12.7966H59.949V12.5966C59.949 11.3624 59.7163 10.6355 59.3812 10.2676L59.3738 10.2593L59.3665 10.2507C59.0611 9.88333 58.4778 9.63074 57.4559 9.63073C56.5862 9.63073 55.7247 9.78592 54.8692 10.0995C54.0368 10.4128 53.2654 10.8619 52.5538 11.4494L52.1246 11.8038L50.2577 8.94943L50.5702 8.66224C51.4237 7.87786 52.4699 7.26857 53.6973 6.82744C54.9256 6.38603 56.1904 6.16502 57.4891 6.16502ZM57.5555 16.2623C55.9196 16.2623 54.8324 16.5071 54.2031 16.9152L54.2015 16.9162L54.1998 16.9174C53.643 17.2726 53.3339 17.8485 53.3339 18.7616C53.3339 19.6076 53.584 20.2053 54.0341 20.6237C54.5163 21.0517 55.2045 21.2943 56.1595 21.2943C57.3453 21.2943 58.2441 20.959 58.9089 20.3307C59.5776 19.6974 59.9269 18.8975 59.948 17.893L59.949 17.7952V16.2623H57.5555Z" fill="var(--fill-0, #044352)"/>
<path fill-rule="evenodd" clip-rule="evenodd" d="M9.37609 0.399796H9.39118L9.40628 0.400772C11.5424 0.538933 13.4526 1.13929 15.1249 2.2097L15.2827 2.31107C16.9013 3.37081 18.1617 4.78197 19.0593 6.53667C19.9856 8.32522 20.4438 10.3265 20.4438 12.5299C20.4438 14.8702 19.9282 16.9765 18.8861 18.8356L18.8862 18.8358C17.867 20.6936 16.4383 22.1492 14.6073 23.1948C12.7733 24.2421 10.6919 24.76 8.37688 24.76H5.55131C4.92864 24.76 3.84492 24.6913 2.31687 24.5581H2.31574L0 24.3508V0.364486L9.37609 0.399796ZM3.723 21.128C5.03758 21.2166 6.23416 21.2609 7.31323 21.2609C10.4265 21.2609 12.7371 20.492 14.3216 19.0273C15.851 17.6136 16.6686 15.5926 16.7182 12.8932L16.7206 12.6299C16.7206 9.96557 16.0152 7.90795 14.6554 6.40015L14.6541 6.39885L14.6529 6.39738C13.3195 4.89616 11.4526 4.06186 8.99335 3.93222H3.723V21.128Z" fill="var(--fill-0, #044352)"/>
<path fill-rule="evenodd" clip-rule="evenodd" d="M88.2574 6.19822C89.9129 6.19823 91.4099 6.59657 92.7345 7.402L92.8597 7.47831C94.144 8.2764 95.1508 9.37444 95.8774 10.7618C96.629 12.1744 97 13.7562 97 15.4959C97 17.2355 96.6291 18.8174 95.8776 20.23C95.1268 21.6411 94.0777 22.7532 92.7345 23.5564C91.3887 24.3611 89.881 24.76 88.2242 24.76C86.5673 24.76 85.0595 24.3612 83.7136 23.5564L83.7104 23.5544C82.392 22.752 81.3558 21.6527 80.6056 20.2662L80.6048 20.2646L80.6038 20.2631C79.8523 18.8506 79.4814 17.2687 79.4814 15.5291C79.4814 13.7894 79.8523 12.2076 80.6038 10.795L80.6046 10.7937L80.6053 10.7924C81.3761 9.36396 82.4225 8.24125 83.7436 7.43714C85.0897 6.60914 86.5987 6.19822 88.2574 6.19822ZM88.2574 9.66409C87.2569 9.66409 86.3868 9.90835 85.6315 10.3866C84.8728 10.867 84.2796 11.5384 83.8521 12.416C83.4252 13.2922 83.2046 14.3149 83.2046 15.4959C83.2046 17.2908 83.6869 18.6856 84.6086 19.7301C85.5251 20.7687 86.7253 21.2943 88.2574 21.2943C89.7895 21.2943 90.9761 20.7689 91.8694 19.7342L91.8712 19.732L91.873 19.7301C92.7658 18.7182 93.2462 17.3776 93.2754 15.663L93.2768 15.4959C93.2768 13.6769 92.7937 12.2716 91.873 11.2281L91.8712 11.2262L91.8694 11.2241C90.9762 10.1893 89.7896 9.6641 88.2574 9.66409Z" fill="var(--fill-0, #044352)"/>
<path d="M33.4832 6.23352C34.3121 6.71997 34.952 7.45785 35.4167 8.4154C36.8563 6.96704 38.6171 6.23158 40.6774 6.23157C42.5188 6.23157 44.0359 6.73577 45.1691 7.79561C46.3417 8.87104 46.8937 10.4108 46.8937 12.33V24.4541L43.1706 24.4996V12.6965C43.1706 11.6739 42.9514 10.9374 42.5721 10.4305C42.2416 9.98877 41.6121 9.69728 40.5112 9.69728C39.5737 9.69729 38.8125 9.92091 38.2008 10.3425L38.1995 10.3434L38.1981 10.3444C37.6025 10.7489 36.9321 11.4241 36.1898 12.3982V24.4601H32.4668V12.1301C32.4668 11.3999 32.3627 10.7581 32.1634 10.1986L32.1606 10.1911L32.1582 10.1835C31.9908 9.66129 31.6605 9.16781 31.1392 8.70552L30.7303 8.34299L33.1608 6.04429L33.4832 6.23352Z" fill="var(--fill-0, #044352)"/>
<path d="M27.8351 6.77082V24.4663L24.1121 24.4207V6.72526L27.8351 6.77082Z" fill="var(--fill-0, #044352)"/>
<path d="M69.1857 6.23629C69.5783 6.47246 69.9509 6.81375 70.3071 7.24172C70.526 7.48975 70.7213 7.75656 70.893 8.04164C71.2538 7.65466 71.6271 7.33227 72.014 7.07933L72.0202 7.07542C72.9553 6.48336 74.0597 6.19822 75.3114 6.19822C76.0079 6.19822 76.8152 6.31816 77.726 6.54643L78.1136 6.64357L78.0211 10.3154L77.4064 10.1461C76.593 9.92182 75.9523 9.81157 75.4719 9.79865L75.378 9.79735C74.4096 9.79735 73.7303 10.0244 73.2732 10.4121L73.268 10.4165L73.2627 10.4209C72.6844 10.8847 72.1691 11.5054 71.7213 12.2946V24.4601H67.9982V12.1634C67.9982 10.5143 67.5568 9.41448 66.7763 8.74376L66.3517 8.37895L68.8646 6.04315L69.1857 6.23629Z" fill="var(--fill-0, #044352)"/>
<path d="M25.9071 0C26.5106 1.06777e-05 27.0405 0.234676 27.4785 0.66893C27.943 1.10717 28.2008 1.64545 28.2008 2.266C28.2008 2.8666 27.9412 3.38828 27.4894 3.81897L27.4896 3.81913C27.4886 3.82008 27.4876 3.82095 27.4866 3.8219C27.4839 3.82444 27.4814 3.82717 27.4787 3.82971L27.4785 3.82954C27.0406 4.26378 26.5108 4.49879 25.9071 4.4988C25.3139 4.4988 24.7925 4.25489 24.3579 3.81913C23.9232 3.38336 23.6799 2.86075 23.6799 2.266C23.6799 1.65594 23.9178 1.12068 24.3579 0.679506C24.7926 0.243675 25.314 0 25.9071 0Z" fill="var(--fill-0, #044352)"/>
</g>
</svg>
