<svg width="125" height="46" viewBox="0 0 125 46" fill="none" xmlns="http://www.w3.org/2000/svg">
<path d="M5.23746 18.2473C2.60486 18.2473 0.457214 20.3809 0.457214 23.0047C0.457214 25.6286 2.59793 27.7621 5.23746 27.7621C7.87699 27.7621 10.0177 25.6286 10.0177 23.0047C10.0177 20.3809 7.87699 18.2473 5.23746 18.2473ZM5.23746 25.884C3.63712 25.884 2.3416 24.5928 2.3416 23.0047C2.3416 21.4166 3.64405 20.1254 5.23746 20.1254C6.83088 20.1254 8.13332 21.4166 8.13332 23.0047C8.13332 24.5928 6.83088 25.884 5.23746 25.884Z" fill="#20232E"/>
<path d="M28.1757 14.6154C30.8083 14.6154 32.956 12.4818 32.956 9.85799C32.956 7.23417 30.8152 5.10059 28.1757 5.10059C25.5362 5.10059 23.3955 7.23417 23.3955 9.85799C23.3955 12.4818 25.5362 14.6154 28.1757 14.6154ZM28.1757 6.97869C29.7691 6.97869 31.0716 8.26989 31.0716 9.85799C31.0716 11.4461 29.7691 12.7373 28.1757 12.7373C26.5823 12.7373 25.2799 11.4461 25.2799 9.85799C25.2799 8.26989 26.5823 6.97869 28.1757 6.97869Z" fill="#20232E"/>
<path d="M28.1826 31.4217C25.55 31.4217 23.4024 33.5553 23.4024 36.1791C23.4024 38.8029 25.5431 40.9365 28.1826 40.9365C30.8222 40.9365 32.9629 38.8029 32.9629 36.1791C32.9629 33.5553 30.8222 31.4217 28.1826 31.4217ZM28.1826 39.0584C26.5823 39.0584 25.2868 37.7672 25.2868 36.1791C25.2868 34.591 26.5892 33.2998 28.1826 33.2998C29.7761 33.2998 31.0785 34.591 31.0785 36.1791C31.0785 37.7672 29.7761 39.0584 28.1826 39.0584Z" fill="#20232E"/>
<path d="M22.1692 23.9576L25.1136 29.0257C25.2383 29.2398 25.1621 29.5091 24.9543 29.6264L24.0675 30.1374C23.8527 30.2617 23.5825 30.1857 23.4648 29.9786L20.5204 24.9105L20.271 24.4755C20.0839 24.1578 19.7445 23.9576 19.3704 23.9576H12.9828C12.7404 23.9576 12.5395 23.7574 12.5395 23.5157V22.4938C12.5395 22.2521 12.7404 22.0519 12.9828 22.0519H19.3704C19.7445 22.0519 20.0839 21.8516 20.271 21.534L20.5204 21.099L23.4648 16.0309C23.5895 15.8168 23.8596 15.7478 24.0675 15.8721L24.9543 16.383C25.169 16.5073 25.2383 16.7766 25.1136 16.9838L22.1692 22.0519L21.9129 22.4869C21.7259 22.8045 21.7259 23.1981 21.9129 23.5157L22.1692 23.9507V23.9576Z" fill="#20232E"/>
<path d="M71.5235 20.3545H70.325C70.0825 20.3545 69.8816 20.5547 69.8816 20.7964V21.3557C69.6045 21.0588 69.272 20.8102 68.8978 20.6168C68.3228 20.313 67.6647 20.1611 66.9373 20.1611C66.0505 20.1611 65.2399 20.389 64.5402 20.824C63.8336 21.2659 63.2724 21.8666 62.8637 22.6123C62.4549 23.3581 62.2471 24.2073 62.2471 25.1395C62.2471 26.0716 62.4549 26.9209 62.8637 27.6667C63.2724 28.4124 63.8405 29.0131 64.5402 29.4481C65.2469 29.8831 66.0574 30.104 66.9373 30.104C67.6647 30.104 68.3228 29.9521 68.9048 29.6483C69.272 29.455 69.5976 29.2133 69.8816 28.9233V29.4688C69.8816 29.7105 70.0825 29.9107 70.325 29.9107H71.5235C71.766 29.9107 71.9669 29.7105 71.9669 29.4688V20.7964C71.9669 20.5547 71.766 20.3545 71.5235 20.3545ZM69.8608 25.1395C69.8608 26.0233 69.6114 26.7552 69.1126 27.3145C68.6207 27.8669 67.9695 28.15 67.1659 28.15C66.6255 28.15 66.1336 28.0188 65.7179 27.7633C65.2953 27.5078 64.9628 27.1488 64.7273 26.7C64.4917 26.2443 64.3739 25.7195 64.3739 25.1188C64.3739 24.5181 64.4917 24.0071 64.7273 23.5583C64.9628 23.1095 65.2953 22.7504 65.7041 22.495C66.1198 22.2395 66.5978 22.1083 67.1451 22.1083C67.6924 22.1083 68.1635 22.2326 68.5653 22.4811C68.9671 22.7297 69.2858 23.0888 69.5144 23.5445C69.7431 24.0002 69.8608 24.5388 69.8608 25.1326V25.1395Z" fill="#20232E"/>
<path d="M115.724 16.0869C115.481 16.0869 115.28 16.2872 115.28 16.5288V29.4684C115.28 29.7101 115.481 29.9103 115.724 29.9103H116.922C117.165 29.9103 117.365 29.7101 117.365 29.4684V28.9229C117.643 29.2129 117.968 29.4546 118.342 29.6479C118.924 29.9518 119.589 30.1037 120.31 30.1037C121.197 30.1037 122 29.8827 122.707 29.4477C123.413 29.0127 123.975 28.412 124.383 27.6663C124.792 26.9205 125 26.0713 125 25.1391C125 24.207 124.792 23.3577 124.383 22.612C123.975 21.8662 123.407 21.2655 122.707 20.8236C122 20.3817 121.197 20.1607 120.31 20.1607C119.582 20.1607 118.924 20.3127 118.349 20.6165C117.975 20.8098 117.649 21.0584 117.365 21.3553V16.5288C117.365 16.2872 117.165 16.0869 116.922 16.0869H115.724ZM117.733 23.5441C117.961 23.0884 118.28 22.7293 118.682 22.4808C119.084 22.2322 119.562 22.1079 120.102 22.1079C120.642 22.1079 121.127 22.2391 121.543 22.4946C121.959 22.75 122.284 23.1091 122.52 23.5579C122.755 24.0067 122.873 24.5177 122.873 25.1184C122.873 25.7122 122.755 26.2439 122.52 26.6996C122.284 27.1484 121.952 27.5075 121.529 27.7629C121.113 28.0184 120.622 28.1496 120.081 28.1496C119.278 28.1496 118.619 27.8734 118.134 27.3141C117.636 26.7548 117.386 26.0229 117.386 25.1391C117.386 24.5453 117.504 24.0067 117.733 23.551V23.5441Z" fill="#20232E"/>
<path d="M88.8918 20.7619C88.2059 20.3614 87.4161 20.1543 86.5432 20.1543C85.6218 20.1543 84.7766 20.3752 84.0284 20.8103C83.2871 21.2453 82.6844 21.8391 82.2479 22.5917C81.8115 23.3374 81.5898 24.1936 81.5898 25.1188C81.5898 26.0441 81.8115 26.921 82.2549 27.6736C82.6983 28.4193 83.301 29.0201 84.063 29.4551C84.8182 29.8901 85.6911 30.111 86.6541 30.111C87.4023 30.111 88.1159 29.966 88.7671 29.6898C89.3282 29.4482 89.834 29.1098 90.2566 28.6817C90.4298 28.5091 90.4298 28.2329 90.2566 28.0603L89.5291 27.3215C89.3629 27.1558 89.0719 27.1558 88.9056 27.3215C88.6493 27.5701 88.3583 27.7634 88.0258 27.8946C87.6101 28.0672 87.146 28.157 86.6471 28.157C86.0513 28.157 85.511 28.0258 85.0537 27.7772C84.5965 27.5286 84.2432 27.1696 84.0007 26.707C83.876 26.4722 83.779 26.2167 83.7236 25.9405H90.9424L90.9701 25.8231C91.0117 25.6436 91.0325 25.471 91.0533 25.3053C91.0671 25.1534 91.0741 25.0084 91.0741 24.8703C91.0741 23.9657 90.8801 23.151 90.4991 22.4398C90.1111 21.7286 89.5707 21.1624 88.8849 20.7619H88.8918ZM89.0373 24.1729H83.7374C83.7998 23.9243 83.8829 23.6896 83.9938 23.4755C84.2224 23.0336 84.5619 22.6884 84.9914 22.4467C85.4209 22.1981 85.9336 22.0807 86.5017 22.0807C87.0697 22.0807 87.5131 22.1912 87.8942 22.4191C88.2683 22.6469 88.5662 22.9646 88.774 23.3719C88.8918 23.6067 88.9818 23.876 89.0303 24.1798L89.0373 24.1729Z" fill="#20232E"/>
<path d="M103.26 16.0869H102.006C101.764 16.0869 101.563 16.2872 101.563 16.5288V21.7765H94.9329V16.5288C94.9329 16.2872 94.732 16.0869 94.4895 16.0869H93.2356C92.9931 16.0869 92.7922 16.2872 92.7922 16.5288V29.4684C92.7922 29.7101 92.9931 29.9103 93.2356 29.9103H94.4895C94.732 29.9103 94.9329 29.7101 94.9329 29.4684V23.7512H101.563V29.4684C101.563 29.7101 101.764 29.9103 102.006 29.9103H103.26C103.503 29.9103 103.704 29.7101 103.704 29.4684V16.5288C103.704 16.2872 103.503 16.0869 103.26 16.0869Z" fill="#20232E"/>
<path d="M113.181 20.3887H112.003C111.761 20.3887 111.56 20.5889 111.56 20.8306V25.8366C111.56 26.5616 111.373 27.1347 111.013 27.5351C110.652 27.9356 110.147 28.1359 109.495 28.1359C109.066 28.1359 108.692 28.0461 108.38 27.8666C108.068 27.687 107.833 27.4247 107.666 27.0863C107.5 26.7411 107.417 26.3199 107.417 25.8366V20.8306C107.417 20.5889 107.216 20.3887 106.974 20.3887H105.796C105.553 20.3887 105.352 20.5889 105.352 20.8306V25.9194C105.352 26.748 105.533 27.4868 105.879 28.1151C106.232 28.7504 106.731 29.2406 107.362 29.5859C107.985 29.9242 108.706 30.1037 109.495 30.1037C110.285 30.1037 111.006 29.9311 111.622 29.5859C112.246 29.2406 112.738 28.7504 113.091 28.1151C113.437 27.4868 113.617 26.748 113.617 25.9194V20.8306C113.617 20.5889 113.417 20.3887 113.174 20.3887H113.181Z" fill="#20232E"/>
<path d="M79.8162 20.3542H77.4261V16.5151C77.4261 16.2735 77.2252 16.0732 76.9827 16.0732H75.805C75.5625 16.0732 75.3616 16.2735 75.3616 16.5151V20.3542H74.0522C73.8097 20.3542 73.6088 20.5545 73.6088 20.7961V21.8111C73.6088 22.0528 73.8097 22.253 74.0522 22.253H75.3616V26.7412C75.3754 27.2521 75.4032 28.3155 76.2414 29.144C76.8927 29.7862 77.8141 30.1107 78.9918 30.1107C79.1373 30.1107 79.2897 30.1038 79.4352 30.09C79.6777 30.0624 79.8578 29.8621 79.8578 29.6205V28.4605C79.8578 28.1912 79.6292 27.9771 79.3659 27.9909H79.3036C79.1858 27.9978 79.0611 28.0047 78.9225 28.0047C78.3891 28.0047 78.0288 27.9012 77.8141 27.6871C77.4885 27.3626 77.4538 26.8516 77.433 26.6376V26.6169C77.433 26.6169 77.433 26.5754 77.433 26.5547V22.2461H79.8232C80.0656 22.2461 80.2665 22.0459 80.2665 21.8042V20.7892C80.2665 20.5476 80.0656 20.3473 79.8232 20.3473L79.8162 20.3542Z" fill="#20232E"/>
<path d="M60.3766 22.3979H54.7511C54.5987 22.3979 54.4601 22.4739 54.3839 22.6051L53.7119 23.7375C53.6634 23.8134 53.6426 23.8963 53.6565 23.9861C53.6911 24.2346 53.8782 24.3934 54.0999 24.3934H58.5199C58.4298 24.9803 58.2705 25.5051 58.0349 25.9539C57.6816 26.6306 57.162 27.1485 56.4969 27.5006C55.8249 27.8527 55.0074 28.0254 54.0722 28.0254C53.1369 28.0254 52.3679 27.8113 51.6613 27.3832C50.9546 26.9551 50.3865 26.3613 49.9709 25.6087C49.5552 24.8561 49.3404 23.9653 49.3404 22.971C49.3404 21.9768 49.5483 21.1067 49.957 20.3541C50.3658 19.6015 50.9477 19.0077 51.6821 18.5796C52.4164 18.1515 53.2824 17.9374 54.2385 17.9374C55.049 17.9374 55.8042 18.0963 56.4831 18.4208C56.7186 18.5313 56.9403 18.6624 57.1482 18.8074C57.356 18.9525 57.6262 18.8903 57.7578 18.6763L58.3883 17.6336C58.506 17.4403 58.4506 17.1917 58.2705 17.0674C57.9657 16.8603 57.647 16.6739 57.3006 16.522C56.3722 16.1008 55.34 15.8867 54.2385 15.8867C53.2339 15.8867 52.2848 16.0662 51.4327 16.4253C50.5736 16.7843 49.8185 17.2884 49.1811 17.9374C48.5437 18.5865 48.038 19.346 47.6847 20.1953C47.3244 21.0446 47.1443 21.9837 47.1443 22.971C47.1443 23.9584 47.3244 24.8975 47.6847 25.7537C48.038 26.6099 48.5437 27.3763 49.1742 28.0185C49.8046 28.6675 50.5528 29.1785 51.398 29.5444C52.2432 29.9104 53.1577 30.0899 54.1137 30.0899C55.4162 30.0899 56.5801 29.8137 57.5846 29.2751C58.5892 28.7296 59.3928 27.908 59.954 26.8239C60.5151 25.7468 60.8061 24.4003 60.8061 22.8122C60.8061 22.5775 60.619 22.391 60.3835 22.391L60.3766 22.3979Z" fill="#20232E"/>
</svg>
