<svg preserveAspectRatio="none" width="100%" height="100%" overflow="visible" style="display: block;" viewBox="0 0 1557 401" fill="none" xmlns="http://www.w3.org/2000/svg">
<g id="Union">
<path fill-rule="evenodd" clip-rule="evenodd" d="M922.789 98.8869C953.656 98.8871 978.539 106.916 996.147 124.154C1013.23 140.88 1021.51 164.338 1022.01 193.345L1022.03 196.169V302.538C1022.03 329.327 1029.29 347.104 1042.11 357.862L1049.02 363.651L1009.5 401L1004.17 397.351C993.147 389.793 984.364 380.796 977.985 370.348C970.137 377.657 960.718 383.526 949.839 387.997L949.836 387.994C935.205 394.153 918.852 397.15 900.912 397.15C870.219 397.15 844.685 388.674 825.124 371.037L825.092 371.011L825.064 370.985C805.788 353.252 796.329 329.805 796.329 301.471C796.329 272.261 807.173 248.772 828.956 231.923L831.1 230.312C853.954 213.271 885.197 205.257 923.855 205.257H962.274V202.049C962.274 182.252 958.539 170.594 953.161 164.692L953.041 164.559L952.923 164.421C948.022 158.529 938.66 154.477 922.255 154.477C908.297 154.477 894.468 156.966 880.736 161.996C867.375 167.021 854.992 174.225 843.57 183.649L836.681 189.333L806.714 143.549L811.729 138.942C825.431 126.361 842.222 116.588 861.925 109.512C881.64 102.432 901.944 98.8869 922.789 98.8869ZM923.855 260.847C897.596 260.847 880.144 264.773 870.043 271.321L870.017 271.336L869.991 271.354C861.054 277.052 856.091 286.289 856.091 300.936C856.091 314.507 860.107 324.093 867.331 330.805C875.071 337.669 886.118 341.56 901.446 341.56C920.48 341.56 934.908 336.182 945.579 326.104C956.313 315.946 961.919 303.116 962.259 287.004L962.274 285.435V260.847H923.855Z" fill="url(#paint0_linear_0_4)"/>
<path fill-rule="evenodd" clip-rule="evenodd" d="M150.501 6.41272H150.743L150.985 6.42838C185.273 8.64448 215.936 18.2742 242.779 35.4435L245.311 37.0696C271.292 54.0677 291.523 76.7028 305.931 104.848C320.8 133.537 328.155 165.637 328.155 200.979C328.155 238.518 319.879 272.303 303.151 302.123L303.153 302.126C286.793 331.925 263.861 355.274 234.47 372.045C205.031 388.843 171.621 397.15 134.462 397.15H89.1071C79.1122 397.15 61.7169 396.048 37.1894 393.911H37.1712L0 390.586V5.84636L150.501 6.41272ZM59.76 338.893C80.861 340.314 100.068 341.025 117.389 341.025C167.362 341.025 204.45 328.692 229.884 305.198C254.433 282.522 267.557 250.105 268.353 206.807L268.392 202.584C268.392 159.848 257.069 126.844 235.241 102.658L235.22 102.637L235.202 102.614C213.799 78.5344 183.832 65.1523 144.357 63.0728H59.76V338.893Z" fill="url(#paint1_linear_0_4)"/>
<path fill-rule="evenodd" clip-rule="evenodd" d="M1416.67 99.4194C1443.24 99.4195 1467.27 105.809 1488.53 118.728L1490.54 119.952C1511.16 132.753 1527.32 150.366 1538.98 172.619C1551.04 195.277 1557 220.649 1557 248.554C1557 276.458 1551.05 301.831 1538.98 324.488C1526.93 347.123 1510.09 364.962 1488.53 377.844C1466.93 390.753 1442.73 397.15 1416.13 397.15C1389.54 397.15 1365.34 390.753 1343.73 377.844L1343.68 377.813C1322.52 364.941 1305.89 347.31 1293.84 325.07L1293.83 325.044L1293.82 325.021C1281.75 302.363 1275.8 276.99 1275.8 249.086C1275.8 221.182 1281.75 195.809 1293.82 173.151L1293.83 173.13L1293.84 173.11C1306.21 150.198 1323.01 132.19 1344.21 119.292C1365.82 106.011 1390.04 99.4194 1416.67 99.4194ZM1416.67 155.012C1400.61 155.012 1386.64 158.93 1374.52 166.6C1362.34 174.306 1352.82 185.077 1345.96 199.152C1339.1 213.207 1335.56 229.611 1335.56 248.554C1335.56 277.344 1343.3 299.717 1358.1 316.471C1372.81 333.13 1392.07 341.56 1416.67 341.56C1441.26 341.56 1460.31 333.133 1474.65 316.536L1474.67 316.502L1474.7 316.471C1489.04 300.241 1496.75 278.737 1497.21 251.234L1497.24 248.554C1497.24 219.378 1489.48 196.836 1474.7 180.099L1474.67 180.068L1474.65 180.034C1460.31 163.437 1441.26 155.012 1416.67 155.012Z" fill="url(#paint2_linear_0_4)"/>
<path d="M537.457 99.9857C550.762 107.788 561.033 119.624 568.492 134.983C591.6 111.751 619.865 99.9546 652.936 99.9544C682.493 99.9544 706.844 108.042 725.035 125.042C743.856 142.291 752.717 166.989 752.717 197.774V392.243L692.954 392.974V203.652C692.954 187.249 689.436 175.436 683.348 167.305C678.043 160.22 667.938 155.544 650.268 155.544C635.219 155.544 623 159.131 613.182 165.893L613.162 165.909L613.138 165.924C603.578 172.412 592.818 183.242 580.902 198.867V392.34H521.142V194.566C521.142 182.854 519.472 172.56 516.272 163.586L516.228 163.466L516.189 163.343C513.501 154.967 508.199 147.052 499.832 139.637L493.269 133.822L532.282 96.9503L537.457 99.9857Z" fill="url(#paint3_linear_0_4)"/>
<path d="M446.797 108.604V392.439L387.037 391.708V107.873L446.797 108.604Z" fill="url(#paint4_linear_0_4)"/>
<path d="M1110.54 100.03C1116.84 103.818 1122.82 109.293 1128.54 116.157C1132.05 120.136 1135.19 124.415 1137.94 128.988C1143.73 122.781 1149.73 117.61 1155.94 113.552L1156.03 113.49C1171.05 103.993 1188.77 99.4195 1208.86 99.4194C1220.05 99.4194 1233 101.343 1247.62 105.005L1253.84 106.563L1252.36 165.46L1242.49 162.743C1229.44 159.146 1219.15 157.378 1211.44 157.17L1209.93 157.15C1194.39 157.15 1183.49 160.791 1176.15 167.01L1176.07 167.08L1175.98 167.151C1166.7 174.59 1158.43 184.546 1151.24 197.205V392.34H1091.48V195.101C1091.48 168.65 1084.39 151.008 1071.86 140.25L1065.05 134.398L1105.38 96.9321L1110.54 100.03Z" fill="url(#paint5_linear_0_4)"/>
<path d="M415.85 0C425.536 0.00017127 434.042 3.76421 441.073 10.7296C448.528 17.7589 452.667 26.3931 452.667 36.3466C452.667 45.9803 448.499 54.348 441.247 61.2562L441.25 61.2588C441.235 61.274 441.218 61.2881 441.203 61.3032C441.16 61.3441 441.118 61.3878 441.075 61.4285L441.073 61.4259C434.043 68.391 425.539 72.1606 415.85 72.1607C406.327 72.1607 397.959 68.2484 390.981 61.2588C384.004 54.269 380.099 45.8865 380.099 36.3466C380.099 26.5613 383.917 17.9757 390.981 10.8993C397.96 3.90855 406.329 0 415.85 0Z" fill="url(#paint6_linear_0_4)"/>
</g>
<defs>
<linearGradient id="paint0_linear_0_4" x1="799.5" y1="401" x2="799.5" y2="122" gradientUnits="userSpaceOnUse">
<stop stop-color="white" stop-opacity="0.1"/>
<stop offset="1" stop-color="white" stop-opacity="0"/>
</linearGradient>
<linearGradient id="paint1_linear_0_4" x1="799.5" y1="401" x2="799.5" y2="122" gradientUnits="userSpaceOnUse">
<stop stop-color="white" stop-opacity="0.1"/>
<stop offset="1" stop-color="white" stop-opacity="0"/>
</linearGradient>
<linearGradient id="paint2_linear_0_4" x1="799.5" y1="401" x2="799.5" y2="122" gradientUnits="userSpaceOnUse">
<stop stop-color="white" stop-opacity="0.1"/>
<stop offset="1" stop-color="white" stop-opacity="0"/>
</linearGradient>
<linearGradient id="paint3_linear_0_4" x1="799.5" y1="401" x2="799.5" y2="122" gradientUnits="userSpaceOnUse">
<stop stop-color="white" stop-opacity="0.1"/>
<stop offset="1" stop-color="white" stop-opacity="0"/>
</linearGradient>
<linearGradient id="paint4_linear_0_4" x1="799.5" y1="401" x2="799.5" y2="122" gradientUnits="userSpaceOnUse">
<stop stop-color="white" stop-opacity="0.1"/>
<stop offset="1" stop-color="white" stop-opacity="0"/>
</linearGradient>
<linearGradient id="paint5_linear_0_4" x1="799.5" y1="401" x2="799.5" y2="122" gradientUnits="userSpaceOnUse">
<stop stop-color="white" stop-opacity="0.1"/>
<stop offset="1" stop-color="white" stop-opacity="0"/>
</linearGradient>
<linearGradient id="paint6_linear_0_4" x1="799.5" y1="401" x2="799.5" y2="122" gradientUnits="userSpaceOnUse">
<stop stop-color="white" stop-opacity="0.1"/>
<stop offset="1" stop-color="white" stop-opacity="0"/>
</linearGradient>
</defs>
</svg>
